<mxfile host="Electron" modified="2023-09-14T07:41:33.008Z" agent="Mozilla/5.0 (Windows NT 10.0; Win64; x64) AppleWebKit/537.36 (KHTML, like Gecko) draw.io/21.6.5 Chrome/114.0.5735.243 Electron/25.3.1 Safari/537.36" etag="4tHRojd0zx5oB_3Sh-Xp" version="21.6.5" type="device">
  <diagram name="Page-1" id="b5b7bab2-c9e2-2cf4-8b2a-24fd1a2a6d21">
    <mxGraphModel dx="4320" dy="2540" grid="1" gridSize="10" guides="1" tooltips="1" connect="1" arrows="1" fold="1" page="0" pageScale="1" pageWidth="827" pageHeight="1169" background="none" math="0" shadow="0">
      <root>
        <mxCell id="0" />
        <mxCell id="1" parent="0" />
        <mxCell id="6e0c8c40b5770093-6" value="" style="group" parent="1" vertex="1" connectable="0">
          <mxGeometry x="1320" y="80" width="356" height="160" as="geometry" />
        </mxCell>
        <mxCell id="6e0c8c40b5770093-4" value="API Almacen" style="shape=folder;fontStyle=1;spacingTop=10;tabWidth=50;tabHeight=17;tabPosition=left;html=1;rounded=0;shadow=0;comic=0;labelBackgroundColor=none;strokeWidth=1;fontFamily=Verdana;fontSize=10;align=center;" parent="6e0c8c40b5770093-6" vertex="1">
          <mxGeometry width="356" height="160" as="geometry" />
        </mxCell>
        <mxCell id="6e0c8c40b5770093-5" value="" style="triangle;whiteSpace=wrap;html=1;rounded=0;shadow=0;comic=0;labelBackgroundColor=none;strokeWidth=1;fontFamily=Verdana;fontSize=10;align=center;rotation=-90;" parent="6e0c8c40b5770093-6" vertex="1">
          <mxGeometry x="33" y="-6.599999999999994" width="20" height="20" as="geometry" />
        </mxCell>
        <mxCell id="6e0c8c40b5770093-18" value="" style="group" parent="1" vertex="1" connectable="0">
          <mxGeometry x="774" y="390" width="1490" height="220.5" as="geometry" />
        </mxCell>
        <mxCell id="6e0c8c40b5770093-11" value="" style="shape=folder;fontStyle=1;spacingTop=10;tabWidth=123;tabHeight=24;tabPosition=left;html=1;rounded=0;shadow=0;comic=0;labelBackgroundColor=none;strokeWidth=1;fontFamily=Verdana;fontSize=10;align=center;" parent="6e0c8c40b5770093-18" vertex="1">
          <mxGeometry width="280" height="130" as="geometry" />
        </mxCell>
        <mxCell id="6e0c8c40b5770093-13" value="" style="triangle;whiteSpace=wrap;html=1;rounded=0;shadow=0;comic=0;labelBackgroundColor=none;strokeWidth=1;fontFamily=Verdana;fontSize=10;align=center;rotation=-90;" parent="6e0c8c40b5770093-18" vertex="1">
          <mxGeometry x="96" y="2" width="15" height="20" as="geometry" />
        </mxCell>
        <mxCell id="6e0c8c40b5770093-15" value="ID Producto&lt;br&gt;Peso Producto&lt;br&gt;Volumen Producto&lt;br&gt;Direccion Producto&lt;br&gt;Cliente&lt;br&gt;BajaLogica" style="shape=folder;fontStyle=1;spacingTop=10;tabWidth=50;tabHeight=17;tabPosition=left;html=1;rounded=0;shadow=0;comic=0;labelBackgroundColor=none;strokeWidth=1;fontFamily=Verdana;fontSize=10;align=center;" parent="6e0c8c40b5770093-18" vertex="1">
          <mxGeometry x="68.5" y="30" width="122" height="90" as="geometry" />
        </mxCell>
        <mxCell id="Lk0_g97--WdqBCXoRrSc-7" value="Modelo De Productos" style="text;html=1;strokeColor=none;fillColor=none;align=center;verticalAlign=middle;whiteSpace=wrap;rounded=0;" parent="6e0c8c40b5770093-18" vertex="1">
          <mxGeometry y="-8" width="109" height="40" as="geometry" />
        </mxCell>
        <mxCell id="6e0c8c40b5770093-64" style="edgeStyle=elbowEdgeStyle;rounded=0;html=1;entryX=0.559;entryY=0.251;entryPerimeter=0;dashed=1;labelBackgroundColor=none;startFill=0;endArrow=open;endFill=0;endSize=10;fontFamily=Verdana;fontSize=10;" parent="1" edge="1">
          <mxGeometry relative="1" as="geometry">
            <mxPoint x="710" y="594.5" as="sourcePoint" />
          </mxGeometry>
        </mxCell>
        <mxCell id="6e0c8c40b5770093-65" style="edgeStyle=none;rounded=0;html=1;dashed=1;labelBackgroundColor=none;startFill=0;endArrow=open;endFill=0;endSize=10;fontFamily=Verdana;fontSize=10;entryX=-0.003;entryY=0.411;entryPerimeter=0;" parent="1" edge="1">
          <mxGeometry relative="1" as="geometry">
            <mxPoint x="799.1640000000002" y="653.27" as="targetPoint" />
          </mxGeometry>
        </mxCell>
        <mxCell id="6e0c8c40b5770093-66" style="edgeStyle=none;rounded=0;html=1;dashed=1;labelBackgroundColor=none;startFill=0;endArrow=open;endFill=0;endSize=10;fontFamily=Verdana;fontSize=10;entryX=1.013;entryY=0.444;entryPerimeter=0;" parent="1" edge="1">
          <mxGeometry relative="1" as="geometry">
            <mxPoint x="664.6881765195672" y="594.5" as="sourcePoint" />
          </mxGeometry>
        </mxCell>
        <mxCell id="6e0c8c40b5770093-68" style="edgeStyle=elbowEdgeStyle;rounded=0;html=1;entryX=0.628;entryY=0.26;entryPerimeter=0;dashed=1;labelBackgroundColor=none;startFill=0;endArrow=open;endFill=0;endSize=10;fontFamily=Verdana;fontSize=10;" parent="1" edge="1">
          <mxGeometry relative="1" as="geometry">
            <mxPoint x="658" y="904.5" as="sourcePoint" />
          </mxGeometry>
        </mxCell>
        <mxCell id="6e0c8c40b5770093-69" style="edgeStyle=elbowEdgeStyle;rounded=0;html=1;entryX=0.643;entryY=0.246;entryPerimeter=0;dashed=1;labelBackgroundColor=none;startFill=0;endArrow=open;endFill=0;endSize=10;fontFamily=Verdana;fontSize=10;" parent="1" edge="1">
          <mxGeometry relative="1" as="geometry">
            <mxPoint x="828" y="904.5" as="sourcePoint" />
          </mxGeometry>
        </mxCell>
        <mxCell id="6e0c8c40b5770093-58" style="rounded=0;html=1;dashed=1;labelBackgroundColor=none;startFill=0;endArrow=open;endFill=0;endSize=10;fontFamily=Verdana;fontSize=10;entryX=0.592;entryY=0.2;entryPerimeter=0;edgeStyle=elbowEdgeStyle;" parent="1" source="6e0c8c40b5770093-4" target="6e0c8c40b5770093-11" edge="1">
          <mxGeometry relative="1" as="geometry" />
        </mxCell>
        <mxCell id="6e0c8c40b5770093-60" style="rounded=0;html=1;dashed=1;labelBackgroundColor=none;startFill=0;endArrow=open;endFill=0;endSize=10;fontFamily=Verdana;fontSize=10;entryX=0.533;entryY=0.198;entryDx=0;entryDy=0;entryPerimeter=0;" parent="1" source="6e0c8c40b5770093-11" target="Lk0_g97--WdqBCXoRrSc-3" edge="1">
          <mxGeometry relative="1" as="geometry">
            <mxPoint x="1246" y="590" as="targetPoint" />
          </mxGeometry>
        </mxCell>
        <mxCell id="Lk0_g97--WdqBCXoRrSc-2" value="" style="group" parent="1" vertex="1" connectable="0">
          <mxGeometry x="765" y="810" width="280" height="130" as="geometry" />
        </mxCell>
        <mxCell id="Lk0_g97--WdqBCXoRrSc-3" value="" style="shape=folder;fontStyle=1;spacingTop=10;tabWidth=123;tabHeight=24;tabPosition=left;html=1;rounded=0;shadow=0;comic=0;labelBackgroundColor=none;strokeWidth=1;fontFamily=Verdana;fontSize=10;align=center;" parent="Lk0_g97--WdqBCXoRrSc-2" vertex="1">
          <mxGeometry width="280" height="130" as="geometry" />
        </mxCell>
        <mxCell id="Lk0_g97--WdqBCXoRrSc-4" value="" style="triangle;whiteSpace=wrap;html=1;rounded=0;shadow=0;comic=0;labelBackgroundColor=none;strokeWidth=1;fontFamily=Verdana;fontSize=10;align=center;rotation=-90;" parent="Lk0_g97--WdqBCXoRrSc-2" vertex="1">
          <mxGeometry x="96" y="2" width="15" height="20" as="geometry" />
        </mxCell>
        <mxCell id="Lk0_g97--WdqBCXoRrSc-5" value="" style="shape=folder;fontStyle=1;spacingTop=10;tabWidth=50;tabHeight=17;tabPosition=left;html=1;rounded=0;shadow=0;comic=0;labelBackgroundColor=none;strokeWidth=1;fontFamily=Verdana;fontSize=10;align=center;" parent="Lk0_g97--WdqBCXoRrSc-2" vertex="1">
          <mxGeometry x="84" y="40" width="136" height="80" as="geometry" />
        </mxCell>
        <mxCell id="Lk0_g97--WdqBCXoRrSc-13" value="Controlador de Productos" style="text;html=1;strokeColor=none;fillColor=none;align=center;verticalAlign=middle;whiteSpace=wrap;rounded=0;" parent="Lk0_g97--WdqBCXoRrSc-2" vertex="1">
          <mxGeometry x="-4" y="-6.5" width="100" height="37" as="geometry" />
        </mxCell>
        <mxCell id="Lk0_g97--WdqBCXoRrSc-14" value="&lt;span style=&quot;color: rgb(240, 240, 240); font-family: Verdana; font-size: 10px; font-style: normal; font-variant-ligatures: normal; font-variant-caps: normal; font-weight: 700; letter-spacing: normal; orphans: 2; text-align: center; text-indent: 0px; text-transform: none; widows: 2; word-spacing: 0px; -webkit-text-stroke-width: 0px; background-color: rgb(42, 37, 47); text-decoration-thickness: initial; text-decoration-style: initial; text-decoration-color: initial; float: none; display: inline !important;&quot;&gt;Validacion de datos y &lt;br&gt;establecimientos de rutas o urls&lt;/span&gt;" style="text;whiteSpace=wrap;html=1;" parent="Lk0_g97--WdqBCXoRrSc-2" vertex="1">
          <mxGeometry x="90" y="65" width="124" height="52.5" as="geometry" />
        </mxCell>
        <mxCell id="Lk0_g97--WdqBCXoRrSc-15" value="" style="group" parent="1" vertex="1" connectable="0">
          <mxGeometry x="1148" y="398" width="280" height="130" as="geometry" />
        </mxCell>
        <mxCell id="Lk0_g97--WdqBCXoRrSc-16" value="" style="shape=folder;fontStyle=1;spacingTop=10;tabWidth=123;tabHeight=24;tabPosition=left;html=1;rounded=0;shadow=0;comic=0;labelBackgroundColor=none;strokeWidth=1;fontFamily=Verdana;fontSize=10;align=center;" parent="Lk0_g97--WdqBCXoRrSc-15" vertex="1">
          <mxGeometry width="280" height="130" as="geometry" />
        </mxCell>
        <mxCell id="Lk0_g97--WdqBCXoRrSc-17" value="" style="triangle;whiteSpace=wrap;html=1;rounded=0;shadow=0;comic=0;labelBackgroundColor=none;strokeWidth=1;fontFamily=Verdana;fontSize=10;align=center;rotation=-90;" parent="Lk0_g97--WdqBCXoRrSc-15" vertex="1">
          <mxGeometry x="96" y="2" width="15" height="20" as="geometry" />
        </mxCell>
        <mxCell id="Lk0_g97--WdqBCXoRrSc-18" value="ID Lote&lt;br&gt;Fecha Creacion&lt;br&gt;Fecha Entrega&lt;br&gt;ID Destino&lt;br&gt;BajaLogica" style="shape=folder;fontStyle=1;spacingTop=10;tabWidth=50;tabHeight=17;tabPosition=left;html=1;rounded=0;shadow=0;comic=0;labelBackgroundColor=none;strokeWidth=1;fontFamily=Verdana;fontSize=10;align=center;" parent="Lk0_g97--WdqBCXoRrSc-15" vertex="1">
          <mxGeometry x="68.5" y="30" width="122" height="90" as="geometry" />
        </mxCell>
        <mxCell id="Lk0_g97--WdqBCXoRrSc-19" value="Modelo De Lotes" style="text;html=1;strokeColor=none;fillColor=none;align=center;verticalAlign=middle;whiteSpace=wrap;rounded=0;" parent="Lk0_g97--WdqBCXoRrSc-15" vertex="1">
          <mxGeometry y="-8" width="109" height="40" as="geometry" />
        </mxCell>
        <mxCell id="Lk0_g97--WdqBCXoRrSc-20" value="" style="group" parent="1" vertex="1" connectable="0">
          <mxGeometry x="1139" y="818" width="280" height="130" as="geometry" />
        </mxCell>
        <mxCell id="Lk0_g97--WdqBCXoRrSc-21" value="" style="shape=folder;fontStyle=1;spacingTop=10;tabWidth=123;tabHeight=24;tabPosition=left;html=1;rounded=0;shadow=0;comic=0;labelBackgroundColor=none;strokeWidth=1;fontFamily=Verdana;fontSize=10;align=center;" parent="Lk0_g97--WdqBCXoRrSc-20" vertex="1">
          <mxGeometry width="280" height="130" as="geometry" />
        </mxCell>
        <mxCell id="Lk0_g97--WdqBCXoRrSc-22" value="" style="triangle;whiteSpace=wrap;html=1;rounded=0;shadow=0;comic=0;labelBackgroundColor=none;strokeWidth=1;fontFamily=Verdana;fontSize=10;align=center;rotation=-90;" parent="Lk0_g97--WdqBCXoRrSc-20" vertex="1">
          <mxGeometry x="96" y="2" width="15" height="20" as="geometry" />
        </mxCell>
        <mxCell id="Lk0_g97--WdqBCXoRrSc-23" value="" style="shape=folder;fontStyle=1;spacingTop=10;tabWidth=50;tabHeight=17;tabPosition=left;html=1;rounded=0;shadow=0;comic=0;labelBackgroundColor=none;strokeWidth=1;fontFamily=Verdana;fontSize=10;align=center;" parent="Lk0_g97--WdqBCXoRrSc-20" vertex="1">
          <mxGeometry x="84" y="40" width="136" height="80" as="geometry" />
        </mxCell>
        <mxCell id="Lk0_g97--WdqBCXoRrSc-24" value="Controlador de Lotes" style="text;html=1;strokeColor=none;fillColor=none;align=center;verticalAlign=middle;whiteSpace=wrap;rounded=0;" parent="Lk0_g97--WdqBCXoRrSc-20" vertex="1">
          <mxGeometry x="-4" y="-6.5" width="100" height="37" as="geometry" />
        </mxCell>
        <mxCell id="Lk0_g97--WdqBCXoRrSc-25" value="&lt;span style=&quot;color: rgb(240, 240, 240); font-family: Verdana; font-size: 10px; font-style: normal; font-variant-ligatures: normal; font-variant-caps: normal; font-weight: 700; letter-spacing: normal; orphans: 2; text-align: center; text-indent: 0px; text-transform: none; widows: 2; word-spacing: 0px; -webkit-text-stroke-width: 0px; background-color: rgb(42, 37, 47); text-decoration-thickness: initial; text-decoration-style: initial; text-decoration-color: initial; float: none; display: inline !important;&quot;&gt;Validacion de datos y &lt;br&gt;establecimientos de rutas o urls&lt;/span&gt;" style="text;whiteSpace=wrap;html=1;" parent="Lk0_g97--WdqBCXoRrSc-20" vertex="1">
          <mxGeometry x="90" y="65" width="124" height="52.5" as="geometry" />
        </mxCell>
        <mxCell id="Lk0_g97--WdqBCXoRrSc-26" style="rounded=0;html=1;dashed=1;labelBackgroundColor=none;startFill=0;endArrow=open;endFill=0;endSize=10;fontFamily=Verdana;fontSize=10;entryX=0.571;entryY=0.186;entryPerimeter=0;edgeStyle=elbowEdgeStyle;entryDx=0;entryDy=0;exitX=0.5;exitY=1;exitDx=0;exitDy=0;exitPerimeter=0;" parent="1" source="6e0c8c40b5770093-4" target="Lk0_g97--WdqBCXoRrSc-16" edge="1">
          <mxGeometry relative="1" as="geometry">
            <mxPoint x="1204" y="290" as="sourcePoint" />
            <mxPoint x="950" y="426" as="targetPoint" />
          </mxGeometry>
        </mxCell>
        <mxCell id="Lk0_g97--WdqBCXoRrSc-27" value="" style="group" parent="1" vertex="1" connectable="0">
          <mxGeometry x="1548" y="398" width="280" height="130" as="geometry" />
        </mxCell>
        <mxCell id="Lk0_g97--WdqBCXoRrSc-28" value="" style="shape=folder;fontStyle=1;spacingTop=10;tabWidth=123;tabHeight=24;tabPosition=left;html=1;rounded=0;shadow=0;comic=0;labelBackgroundColor=none;strokeWidth=1;fontFamily=Verdana;fontSize=10;align=center;" parent="Lk0_g97--WdqBCXoRrSc-27" vertex="1">
          <mxGeometry width="280" height="130" as="geometry" />
        </mxCell>
        <mxCell id="Lk0_g97--WdqBCXoRrSc-29" value="" style="triangle;whiteSpace=wrap;html=1;rounded=0;shadow=0;comic=0;labelBackgroundColor=none;strokeWidth=1;fontFamily=Verdana;fontSize=10;align=center;rotation=-90;" parent="Lk0_g97--WdqBCXoRrSc-27" vertex="1">
          <mxGeometry x="96" y="2" width="15" height="20" as="geometry" />
        </mxCell>
        <mxCell id="Lk0_g97--WdqBCXoRrSc-30" value="ID Lote&lt;br&gt;ID Producto" style="shape=folder;fontStyle=1;spacingTop=10;tabWidth=50;tabHeight=17;tabPosition=left;html=1;rounded=0;shadow=0;comic=0;labelBackgroundColor=none;strokeWidth=1;fontFamily=Verdana;fontSize=10;align=center;" parent="Lk0_g97--WdqBCXoRrSc-27" vertex="1">
          <mxGeometry x="68.5" y="30" width="122" height="90" as="geometry" />
        </mxCell>
        <mxCell id="Lk0_g97--WdqBCXoRrSc-31" value="Modelo de Integracion" style="text;html=1;strokeColor=none;fillColor=none;align=center;verticalAlign=middle;whiteSpace=wrap;rounded=0;" parent="Lk0_g97--WdqBCXoRrSc-27" vertex="1">
          <mxGeometry y="-8" width="109" height="40" as="geometry" />
        </mxCell>
        <mxCell id="Lk0_g97--WdqBCXoRrSc-32" value="" style="group" parent="1" vertex="1" connectable="0">
          <mxGeometry x="1539" y="818" width="280" height="130" as="geometry" />
        </mxCell>
        <mxCell id="Lk0_g97--WdqBCXoRrSc-33" value="" style="shape=folder;fontStyle=1;spacingTop=10;tabWidth=123;tabHeight=24;tabPosition=left;html=1;rounded=0;shadow=0;comic=0;labelBackgroundColor=none;strokeWidth=1;fontFamily=Verdana;fontSize=10;align=center;" parent="Lk0_g97--WdqBCXoRrSc-32" vertex="1">
          <mxGeometry width="280" height="130" as="geometry" />
        </mxCell>
        <mxCell id="Lk0_g97--WdqBCXoRrSc-34" value="" style="triangle;whiteSpace=wrap;html=1;rounded=0;shadow=0;comic=0;labelBackgroundColor=none;strokeWidth=1;fontFamily=Verdana;fontSize=10;align=center;rotation=-90;" parent="Lk0_g97--WdqBCXoRrSc-32" vertex="1">
          <mxGeometry x="96" y="2" width="15" height="20" as="geometry" />
        </mxCell>
        <mxCell id="Lk0_g97--WdqBCXoRrSc-35" value="" style="shape=folder;fontStyle=1;spacingTop=10;tabWidth=50;tabHeight=17;tabPosition=left;html=1;rounded=0;shadow=0;comic=0;labelBackgroundColor=none;strokeWidth=1;fontFamily=Verdana;fontSize=10;align=center;" parent="Lk0_g97--WdqBCXoRrSc-32" vertex="1">
          <mxGeometry x="84" y="40" width="136" height="80" as="geometry" />
        </mxCell>
        <mxCell id="Lk0_g97--WdqBCXoRrSc-36" value="Controlador de Integracion" style="text;html=1;strokeColor=none;fillColor=none;align=center;verticalAlign=middle;whiteSpace=wrap;rounded=0;" parent="Lk0_g97--WdqBCXoRrSc-32" vertex="1">
          <mxGeometry x="-4" y="-6.5" width="100" height="37" as="geometry" />
        </mxCell>
        <mxCell id="Lk0_g97--WdqBCXoRrSc-37" value="&lt;span style=&quot;color: rgb(240, 240, 240); font-family: Verdana; font-size: 10px; font-style: normal; font-variant-ligatures: normal; font-variant-caps: normal; font-weight: 700; letter-spacing: normal; orphans: 2; text-align: center; text-indent: 0px; text-transform: none; widows: 2; word-spacing: 0px; -webkit-text-stroke-width: 0px; background-color: rgb(42, 37, 47); text-decoration-thickness: initial; text-decoration-style: initial; text-decoration-color: initial; float: none; display: inline !important;&quot;&gt;Validacion de datos y &lt;br&gt;establecimientos de rutas o urls&lt;/span&gt;" style="text;whiteSpace=wrap;html=1;" parent="Lk0_g97--WdqBCXoRrSc-32" vertex="1">
          <mxGeometry x="90" y="65" width="124" height="52.5" as="geometry" />
        </mxCell>
        <mxCell id="Lk0_g97--WdqBCXoRrSc-38" style="rounded=0;html=1;dashed=1;labelBackgroundColor=none;startFill=0;endArrow=open;endFill=0;endSize=10;fontFamily=Verdana;fontSize=10;entryX=0.5;entryY=0;edgeStyle=elbowEdgeStyle;entryDx=0;entryDy=0;exitX=0.685;exitY=1.006;exitDx=0;exitDy=0;exitPerimeter=0;" parent="1" source="6e0c8c40b5770093-4" target="Lk0_g97--WdqBCXoRrSc-31" edge="1">
          <mxGeometry relative="1" as="geometry">
            <mxPoint x="1369" y="180" as="sourcePoint" />
            <mxPoint x="1318" y="432" as="targetPoint" />
            <Array as="points">
              <mxPoint x="1564" y="320" />
            </Array>
          </mxGeometry>
        </mxCell>
        <mxCell id="Lk0_g97--WdqBCXoRrSc-39" value="" style="group" parent="1" vertex="1" connectable="0">
          <mxGeometry x="1898" y="408" width="280" height="130" as="geometry" />
        </mxCell>
        <mxCell id="Lk0_g97--WdqBCXoRrSc-40" value="" style="shape=folder;fontStyle=1;spacingTop=10;tabWidth=123;tabHeight=24;tabPosition=left;html=1;rounded=0;shadow=0;comic=0;labelBackgroundColor=none;strokeWidth=1;fontFamily=Verdana;fontSize=10;align=center;" parent="Lk0_g97--WdqBCXoRrSc-39" vertex="1">
          <mxGeometry width="280" height="130" as="geometry" />
        </mxCell>
        <mxCell id="Lk0_g97--WdqBCXoRrSc-41" value="" style="triangle;whiteSpace=wrap;html=1;rounded=0;shadow=0;comic=0;labelBackgroundColor=none;strokeWidth=1;fontFamily=Verdana;fontSize=10;align=center;rotation=-90;" parent="Lk0_g97--WdqBCXoRrSc-39" vertex="1">
          <mxGeometry x="96" y="2" width="15" height="20" as="geometry" />
        </mxCell>
        <mxCell id="Lk0_g97--WdqBCXoRrSc-42" value="ID Lote&lt;br&gt;ID Camion&lt;br&gt;Fecha Envio" style="shape=folder;fontStyle=1;spacingTop=10;tabWidth=50;tabHeight=17;tabPosition=left;html=1;rounded=0;shadow=0;comic=0;labelBackgroundColor=none;strokeWidth=1;fontFamily=Verdana;fontSize=10;align=center;" parent="Lk0_g97--WdqBCXoRrSc-39" vertex="1">
          <mxGeometry x="68.5" y="30" width="122" height="90" as="geometry" />
        </mxCell>
        <mxCell id="Lk0_g97--WdqBCXoRrSc-43" value="Modelo de transporte" style="text;html=1;strokeColor=none;fillColor=none;align=center;verticalAlign=middle;whiteSpace=wrap;rounded=0;" parent="Lk0_g97--WdqBCXoRrSc-39" vertex="1">
          <mxGeometry y="-8" width="109" height="40" as="geometry" />
        </mxCell>
        <mxCell id="Lk0_g97--WdqBCXoRrSc-44" value="" style="group" parent="1" vertex="1" connectable="0">
          <mxGeometry x="1889" y="828" width="280" height="130" as="geometry" />
        </mxCell>
        <mxCell id="Lk0_g97--WdqBCXoRrSc-45" value="" style="shape=folder;fontStyle=1;spacingTop=10;tabWidth=123;tabHeight=24;tabPosition=left;html=1;rounded=0;shadow=0;comic=0;labelBackgroundColor=none;strokeWidth=1;fontFamily=Verdana;fontSize=10;align=center;" parent="Lk0_g97--WdqBCXoRrSc-44" vertex="1">
          <mxGeometry width="280" height="130" as="geometry" />
        </mxCell>
        <mxCell id="Lk0_g97--WdqBCXoRrSc-46" value="" style="triangle;whiteSpace=wrap;html=1;rounded=0;shadow=0;comic=0;labelBackgroundColor=none;strokeWidth=1;fontFamily=Verdana;fontSize=10;align=center;rotation=-90;" parent="Lk0_g97--WdqBCXoRrSc-44" vertex="1">
          <mxGeometry x="96" y="2" width="15" height="20" as="geometry" />
        </mxCell>
        <mxCell id="Lk0_g97--WdqBCXoRrSc-47" value="" style="shape=folder;fontStyle=1;spacingTop=10;tabWidth=50;tabHeight=17;tabPosition=left;html=1;rounded=0;shadow=0;comic=0;labelBackgroundColor=none;strokeWidth=1;fontFamily=Verdana;fontSize=10;align=center;" parent="Lk0_g97--WdqBCXoRrSc-44" vertex="1">
          <mxGeometry x="84" y="40" width="136" height="80" as="geometry" />
        </mxCell>
        <mxCell id="Lk0_g97--WdqBCXoRrSc-48" value="Controlador de transporte" style="text;html=1;strokeColor=none;fillColor=none;align=center;verticalAlign=middle;whiteSpace=wrap;rounded=0;" parent="Lk0_g97--WdqBCXoRrSc-44" vertex="1">
          <mxGeometry x="-4" y="-6.5" width="100" height="37" as="geometry" />
        </mxCell>
        <mxCell id="Lk0_g97--WdqBCXoRrSc-49" value="&lt;span style=&quot;color: rgb(240, 240, 240); font-family: Verdana; font-size: 10px; font-style: normal; font-variant-ligatures: normal; font-variant-caps: normal; font-weight: 700; letter-spacing: normal; orphans: 2; text-align: center; text-indent: 0px; text-transform: none; widows: 2; word-spacing: 0px; -webkit-text-stroke-width: 0px; background-color: rgb(42, 37, 47); text-decoration-thickness: initial; text-decoration-style: initial; text-decoration-color: initial; float: none; display: inline !important;&quot;&gt;Validacion de datos y &lt;br&gt;establecimientos de rutas o urls&lt;/span&gt;" style="text;whiteSpace=wrap;html=1;" parent="Lk0_g97--WdqBCXoRrSc-44" vertex="1">
          <mxGeometry x="90" y="65" width="124" height="52.5" as="geometry" />
        </mxCell>
        <mxCell id="Lk0_g97--WdqBCXoRrSc-51" value="&lt;font style=&quot;font-size: 29px;&quot;&gt;Peticiones HTTP&lt;/font&gt;" style="rounded=1;whiteSpace=wrap;html=1;" parent="1" vertex="1">
          <mxGeometry x="765" y="1240" width="1386" height="60" as="geometry" />
        </mxCell>
        <mxCell id="Lk0_g97--WdqBCXoRrSc-56" style="rounded=0;html=1;dashed=1;labelBackgroundColor=none;startFill=0;endArrow=open;endFill=0;endSize=10;fontFamily=Verdana;fontSize=10;edgeStyle=elbowEdgeStyle;exitX=1.006;exitY=0.444;exitDx=0;exitDy=0;exitPerimeter=0;" parent="1" source="6e0c8c40b5770093-4" edge="1">
          <mxGeometry relative="1" as="geometry">
            <mxPoint x="1889" y="150" as="sourcePoint" />
            <mxPoint x="1960" y="410" as="targetPoint" />
            <Array as="points">
              <mxPoint x="1960" y="240" />
            </Array>
          </mxGeometry>
        </mxCell>
        <mxCell id="Lk0_g97--WdqBCXoRrSc-57" style="rounded=0;html=1;dashed=1;labelBackgroundColor=none;startFill=0;endArrow=open;endFill=0;endSize=10;fontFamily=Verdana;fontSize=10;entryX=0.375;entryY=-0.023;edgeStyle=elbowEdgeStyle;entryDx=0;entryDy=0;exitX=0.5;exitY=1;exitDx=0;exitDy=0;exitPerimeter=0;entryPerimeter=0;" parent="1" source="Lk0_g97--WdqBCXoRrSc-16" target="Lk0_g97--WdqBCXoRrSc-21" edge="1">
          <mxGeometry relative="1" as="geometry">
            <mxPoint x="1434" y="167" as="sourcePoint" />
            <mxPoint x="1613" y="400" as="targetPoint" />
            <Array as="points">
              <mxPoint x="1288" y="650" />
            </Array>
          </mxGeometry>
        </mxCell>
        <mxCell id="Lk0_g97--WdqBCXoRrSc-58" style="rounded=0;html=1;dashed=1;labelBackgroundColor=none;startFill=0;endArrow=open;endFill=0;endSize=10;fontFamily=Verdana;fontSize=10;entryX=0.75;entryY=0;edgeStyle=elbowEdgeStyle;entryDx=0;entryDy=0;exitX=0.5;exitY=1;exitDx=0;exitDy=0;exitPerimeter=0;" parent="1" source="Lk0_g97--WdqBCXoRrSc-28" target="Lk0_g97--WdqBCXoRrSc-36" edge="1">
          <mxGeometry relative="1" as="geometry">
            <mxPoint x="1714" y="610.5" as="sourcePoint" />
            <mxPoint x="1670" y="897.5" as="targetPoint" />
            <Array as="points">
              <mxPoint x="1620" y="680" />
            </Array>
          </mxGeometry>
        </mxCell>
        <mxCell id="Lk0_g97--WdqBCXoRrSc-59" style="rounded=0;html=1;dashed=1;labelBackgroundColor=none;startFill=0;endArrow=open;endFill=0;endSize=10;fontFamily=Verdana;fontSize=10;entryX=0.75;entryY=0;edgeStyle=elbowEdgeStyle;entryDx=0;entryDy=0;" parent="1" source="Lk0_g97--WdqBCXoRrSc-40" target="Lk0_g97--WdqBCXoRrSc-48" edge="1">
          <mxGeometry relative="1" as="geometry">
            <mxPoint x="2088" y="570" as="sourcePoint" />
            <mxPoint x="2010" y="854" as="targetPoint" />
            <Array as="points" />
          </mxGeometry>
        </mxCell>
        <mxCell id="Lk0_g97--WdqBCXoRrSc-60" value="" style="group" parent="1" vertex="1" connectable="0">
          <mxGeometry x="838" y="1570" width="1260" height="210" as="geometry" />
        </mxCell>
        <mxCell id="Lk0_g97--WdqBCXoRrSc-61" value="" style="shape=folder;fontStyle=1;spacingTop=10;tabWidth=123;tabHeight=24;tabPosition=left;html=1;rounded=0;shadow=0;comic=0;labelBackgroundColor=none;strokeWidth=1;fontFamily=Verdana;fontSize=10;align=center;" parent="Lk0_g97--WdqBCXoRrSc-60" vertex="1">
          <mxGeometry width="1260" height="210" as="geometry" />
        </mxCell>
        <mxCell id="Lk0_g97--WdqBCXoRrSc-63" value="" style="shape=folder;fontStyle=1;spacingTop=10;tabWidth=50;tabHeight=17;tabPosition=left;html=1;rounded=0;shadow=0;comic=0;labelBackgroundColor=none;strokeWidth=1;fontFamily=Verdana;fontSize=10;align=center;" parent="Lk0_g97--WdqBCXoRrSc-60" vertex="1">
          <mxGeometry x="378" y="46.15" width="612" height="133.85" as="geometry" />
        </mxCell>
        <mxCell id="Lk0_g97--WdqBCXoRrSc-64" value="Interfaz almacen" style="text;html=1;strokeColor=none;fillColor=none;align=center;verticalAlign=middle;whiteSpace=wrap;rounded=0;" parent="Lk0_g97--WdqBCXoRrSc-60" vertex="1">
          <mxGeometry x="-30" y="-7.5" width="180" height="42.69" as="geometry" />
        </mxCell>
        <mxCell id="Lk0_g97--WdqBCXoRrSc-65" value="&lt;div style=&quot;font-size: 15px;&quot;&gt;&lt;font style=&quot;font-size: 15px;&quot; face=&quot;Verdana&quot;&gt;&lt;span style=&quot;background-color: rgb(42, 37, 47);&quot;&gt;&lt;b style=&quot;&quot;&gt;Ventana de agregar productos.&lt;/b&gt;&lt;/span&gt;&lt;/font&gt;&lt;/div&gt;&lt;div style=&quot;font-size: 15px;&quot;&gt;&lt;font style=&quot;font-size: 15px;&quot; face=&quot;Verdana&quot;&gt;&lt;span style=&quot;background-color: rgb(42, 37, 47);&quot;&gt;&lt;b&gt;Ventana de agregar lotes.&lt;/b&gt;&lt;/span&gt;&lt;/font&gt;&lt;/div&gt;&lt;div style=&quot;font-size: 15px;&quot;&gt;&lt;font style=&quot;font-size: 15px;&quot; face=&quot;Verdana&quot;&gt;&lt;span style=&quot;background-color: rgb(42, 37, 47);&quot;&gt;&lt;b&gt;Ventana de integrar productos a un lote.&lt;/b&gt;&lt;/span&gt;&lt;/font&gt;&lt;/div&gt;&lt;div style=&quot;font-size: 15px;&quot;&gt;&lt;font style=&quot;font-size: 15px;&quot; face=&quot;Verdana&quot;&gt;&lt;span style=&quot;background-color: rgb(42, 37, 47);&quot;&gt;&lt;b style=&quot;&quot;&gt;Ventana de asignar lote a un camion.&lt;/b&gt;&lt;/span&gt;&lt;/font&gt;&lt;/div&gt;" style="text;whiteSpace=wrap;html=1;align=left;" parent="Lk0_g97--WdqBCXoRrSc-60" vertex="1">
          <mxGeometry x="405" y="75" width="415" height="95" as="geometry" />
        </mxCell>
        <mxCell id="Lk0_g97--WdqBCXoRrSc-73" value="&lt;font style=&quot;font-size: 7px;&quot;&gt;Ventanas-Gui&lt;/font&gt;" style="text;html=1;strokeColor=none;fillColor=none;align=center;verticalAlign=middle;whiteSpace=wrap;rounded=0;" parent="Lk0_g97--WdqBCXoRrSc-60" vertex="1">
          <mxGeometry x="350" y="46.15" width="100" height="20" as="geometry" />
        </mxCell>
        <mxCell id="Lk0_g97--WdqBCXoRrSc-68" value="&lt;font style=&quot;font-size: 50px;&quot;&gt;Logica del negocio&lt;/font&gt;" style="text;html=1;strokeColor=none;fillColor=none;align=center;verticalAlign=middle;whiteSpace=wrap;rounded=0;" parent="1" vertex="1">
          <mxGeometry x="130" y="430" width="480" height="30" as="geometry" />
        </mxCell>
        <mxCell id="Lk0_g97--WdqBCXoRrSc-70" value="&lt;span style=&quot;font-size: 50px;&quot;&gt;Interprete de datos recibidos&lt;/span&gt;" style="text;html=1;strokeColor=none;fillColor=none;align=center;verticalAlign=middle;whiteSpace=wrap;rounded=0;" parent="1" vertex="1">
          <mxGeometry x="120" y="818" width="480" height="140" as="geometry" />
        </mxCell>
        <mxCell id="Lk0_g97--WdqBCXoRrSc-71" value="" style="shape=flexArrow;endArrow=classic;html=1;rounded=0;width=20;endSize=12.142857142857142;endWidth=96.19047619047619;" parent="1" edge="1">
          <mxGeometry width="50" height="50" relative="1" as="geometry">
            <mxPoint x="580" y="860" as="sourcePoint" />
            <mxPoint x="740" y="860" as="targetPoint" />
          </mxGeometry>
        </mxCell>
        <mxCell id="Lk0_g97--WdqBCXoRrSc-72" value="" style="shape=flexArrow;endArrow=classic;html=1;rounded=0;width=20;endSize=12.142857142857142;endWidth=96.19047619047619;" parent="1" edge="1">
          <mxGeometry width="50" height="50" relative="1" as="geometry">
            <mxPoint x="605" y="450" as="sourcePoint" />
            <mxPoint x="765" y="450" as="targetPoint" />
          </mxGeometry>
        </mxCell>
        <mxCell id="Lk0_g97--WdqBCXoRrSc-75" value="" style="endArrow=classic;html=1;rounded=0;entryX=0.5;entryY=1;entryDx=0;entryDy=0;exitX=0.494;exitY=0.116;exitDx=0;exitDy=0;exitPerimeter=0;" parent="1" source="Lk0_g97--WdqBCXoRrSc-61" target="Lk0_g97--WdqBCXoRrSc-51" edge="1">
          <mxGeometry width="50" height="50" relative="1" as="geometry">
            <mxPoint x="1467.9999999999995" y="1709.9999999999995" as="sourcePoint" />
            <mxPoint x="1468" y="1370" as="targetPoint" />
          </mxGeometry>
        </mxCell>
        <mxCell id="Lk0_g97--WdqBCXoRrSc-76" value="" style="endArrow=classic;html=1;rounded=0;entryX=0.5;entryY=1;entryDx=0;entryDy=0;exitX=0.149;exitY=0.033;exitDx=0;exitDy=0;exitPerimeter=0;" parent="1" source="Lk0_g97--WdqBCXoRrSc-51" edge="1">
          <mxGeometry width="50" height="50" relative="1" as="geometry">
            <mxPoint x="970" y="1280" as="sourcePoint" />
            <mxPoint x="970" y="940" as="targetPoint" />
          </mxGeometry>
        </mxCell>
        <mxCell id="Lk0_g97--WdqBCXoRrSc-77" value="" style="endArrow=classic;html=1;rounded=0;entryX=0.5;entryY=1;entryDx=0;entryDy=0;entryPerimeter=0;exitX=0.373;exitY=0.033;exitDx=0;exitDy=0;exitPerimeter=0;" parent="1" source="Lk0_g97--WdqBCXoRrSc-51" target="Lk0_g97--WdqBCXoRrSc-21" edge="1">
          <mxGeometry width="50" height="50" relative="1" as="geometry">
            <mxPoint x="1300" y="1230" as="sourcePoint" />
            <mxPoint x="980" y="950" as="targetPoint" />
          </mxGeometry>
        </mxCell>
        <mxCell id="Lk0_g97--WdqBCXoRrSc-78" value="" style="endArrow=classic;html=1;rounded=0;exitX=0.662;exitY=-0.033;exitDx=0;exitDy=0;exitPerimeter=0;" parent="1" source="Lk0_g97--WdqBCXoRrSc-51" edge="1">
          <mxGeometry width="50" height="50" relative="1" as="geometry">
            <mxPoint x="1310" y="1240" as="sourcePoint" />
            <mxPoint x="1683" y="950" as="targetPoint" />
          </mxGeometry>
        </mxCell>
        <mxCell id="Lk0_g97--WdqBCXoRrSc-79" value="" style="endArrow=classic;html=1;rounded=0;exitX=0.917;exitY=-0.033;exitDx=0;exitDy=0;exitPerimeter=0;entryX=0.5;entryY=1;entryDx=0;entryDy=0;entryPerimeter=0;" parent="1" source="Lk0_g97--WdqBCXoRrSc-51" target="Lk0_g97--WdqBCXoRrSc-45" edge="1">
          <mxGeometry width="50" height="50" relative="1" as="geometry">
            <mxPoint x="2031" y="1248" as="sourcePoint" />
            <mxPoint x="2036" y="960" as="targetPoint" />
          </mxGeometry>
        </mxCell>
        <mxCell id="Lk0_g97--WdqBCXoRrSc-80" value="&lt;span style=&quot;font-size: 50px;&quot;&gt;Capa visual&lt;/span&gt;" style="text;html=1;strokeColor=none;fillColor=none;align=center;verticalAlign=middle;whiteSpace=wrap;rounded=0;" parent="1" vertex="1">
          <mxGeometry x="140" y="1620" width="480" height="140" as="geometry" />
        </mxCell>
        <mxCell id="Lk0_g97--WdqBCXoRrSc-81" value="" style="shape=flexArrow;endArrow=classic;html=1;rounded=0;width=20;endSize=12.142857142857142;endWidth=96.19047619047619;" parent="1" edge="1">
          <mxGeometry width="50" height="50" relative="1" as="geometry">
            <mxPoint x="600" y="1662" as="sourcePoint" />
            <mxPoint x="760" y="1662" as="targetPoint" />
          </mxGeometry>
        </mxCell>
        <mxCell id="Lk0_g97--WdqBCXoRrSc-82" value="" style="group" parent="1" vertex="1" connectable="0">
          <mxGeometry x="3260" y="3780" width="1240" height="160" as="geometry" />
        </mxCell>
        <mxCell id="Lk0_g97--WdqBCXoRrSc-83" value="&lt;font style=&quot;font-size: 20px;&quot;&gt;API o Middleware de autenticacion&amp;nbsp; (Login)&lt;br&gt;&lt;br&gt;Username&lt;br&gt;Password&lt;br&gt;Tipo de usuario&lt;/font&gt;" style="shape=folder;fontStyle=1;spacingTop=10;tabWidth=50;tabHeight=17;tabPosition=left;html=1;rounded=0;shadow=0;comic=0;labelBackgroundColor=none;strokeWidth=1;fontFamily=Verdana;fontSize=10;align=center;" parent="Lk0_g97--WdqBCXoRrSc-82" vertex="1">
          <mxGeometry y="-160" width="1240" height="320" as="geometry" />
        </mxCell>
        <mxCell id="Lk0_g97--WdqBCXoRrSc-108" value="&lt;font style=&quot;font-size: 21px;&quot;&gt;Acceso al sistema&lt;/font&gt;" style="text;html=1;strokeColor=none;fillColor=none;align=center;verticalAlign=middle;whiteSpace=wrap;rounded=0;" parent="Lk0_g97--WdqBCXoRrSc-82" vertex="1">
          <mxGeometry x="477.5" y="120" width="194" height="40" as="geometry" />
        </mxCell>
        <mxCell id="Lk0_g97--WdqBCXoRrSc-114" value="&lt;font style=&quot;font-size: 21px;&quot;&gt;Loop hacia login&lt;/font&gt;" style="text;html=1;strokeColor=none;fillColor=none;align=center;verticalAlign=middle;whiteSpace=wrap;rounded=0;" parent="Lk0_g97--WdqBCXoRrSc-82" vertex="1">
          <mxGeometry x="717.5" y="120" width="194" height="40" as="geometry" />
        </mxCell>
        <mxCell id="Lk0_g97--WdqBCXoRrSc-91" value="" style="triangle;whiteSpace=wrap;html=1;rounded=0;shadow=0;comic=0;labelBackgroundColor=none;strokeWidth=1;fontFamily=Verdana;fontSize=10;align=center;rotation=-90;" parent="1" vertex="1">
          <mxGeometry x="3291.25" y="3620" width="17.5" height="20" as="geometry" />
        </mxCell>
        <mxCell id="Lk0_g97--WdqBCXoRrSc-93" value="&lt;font style=&quot;font-size: 65px;&quot;&gt;Autorizado&lt;/font&gt;" style="rounded=1;whiteSpace=wrap;html=1;" parent="1" vertex="1">
          <mxGeometry x="3374.25" y="3330" width="1047.5" height="150" as="geometry" />
        </mxCell>
        <mxCell id="Lk0_g97--WdqBCXoRrSc-94" value="" style="endArrow=classic;html=1;rounded=0;entryX=0.5;entryY=1;entryDx=0;entryDy=0;exitX=0;exitY=0;exitDx=645;exitDy=17;exitPerimeter=0;" parent="1" source="Lk0_g97--WdqBCXoRrSc-83" target="Lk0_g97--WdqBCXoRrSc-93" edge="1">
          <mxGeometry width="50" height="50" relative="1" as="geometry">
            <mxPoint x="3949.5" y="3527" as="sourcePoint" />
            <mxPoint x="3947.5" y="3233" as="targetPoint" />
          </mxGeometry>
        </mxCell>
        <mxCell id="Lk0_g97--WdqBCXoRrSc-96" value="" style="shape=folder;fontStyle=1;spacingTop=10;tabWidth=50;tabHeight=17;tabPosition=left;html=1;rounded=0;shadow=0;comic=0;labelBackgroundColor=none;strokeWidth=1;fontFamily=Verdana;fontSize=10;align=center;" parent="1" vertex="1">
          <mxGeometry x="3290" y="4130" width="1150" height="330" as="geometry" />
        </mxCell>
        <mxCell id="Lk0_g97--WdqBCXoRrSc-97" value="&lt;font style=&quot;font-size: 9px;&quot;&gt;Login visual&lt;/font&gt;" style="text;html=1;strokeColor=none;fillColor=none;align=center;verticalAlign=middle;whiteSpace=wrap;rounded=0;" parent="1" vertex="1">
          <mxGeometry x="3280" y="4120" width="72" height="40" as="geometry" />
        </mxCell>
        <mxCell id="Lk0_g97--WdqBCXoRrSc-99" value="&lt;h1 style=&quot;font-size: 43px;&quot;&gt;&lt;span style=&quot;background-color: initial;&quot;&gt;&lt;font style=&quot;font-size: 43px;&quot;&gt;Ventana Login:&lt;/font&gt;&lt;/span&gt;&lt;/h1&gt;&lt;div style=&quot;font-size: 43px;&quot;&gt;&lt;span style=&quot;background-color: initial;&quot;&gt;&lt;font style=&quot;font-size: 43px;&quot;&gt;Input de usuario.&lt;/font&gt;&lt;/span&gt;&lt;/div&gt;&lt;div style=&quot;font-size: 43px;&quot;&gt;&lt;span style=&quot;background-color: initial;&quot;&gt;&lt;font style=&quot;font-size: 43px;&quot;&gt;Input de password.&lt;/font&gt;&lt;/span&gt;&lt;/div&gt;&lt;div style=&quot;font-size: 43px;&quot;&gt;&lt;font style=&quot;font-size: 43px;&quot;&gt;Boton de login.&lt;/font&gt;&lt;/div&gt;" style="text;html=1;strokeColor=none;fillColor=none;spacing=5;spacingTop=-20;whiteSpace=wrap;overflow=hidden;rounded=0;" parent="1" vertex="1">
          <mxGeometry x="3660" y="4180" width="550" height="270" as="geometry" />
        </mxCell>
        <mxCell id="Lk0_g97--WdqBCXoRrSc-102" value="&lt;font style=&quot;font-size: 25px;&quot;&gt;Usuario valido&lt;/font&gt;" style="text;html=1;strokeColor=none;fillColor=none;align=center;verticalAlign=middle;whiteSpace=wrap;rounded=0;" parent="1" vertex="1">
          <mxGeometry x="3757.5" y="4000" width="160" height="40" as="geometry" />
        </mxCell>
        <mxCell id="Lk0_g97--WdqBCXoRrSc-105" value="&lt;font style=&quot;font-size: 24px;&quot;&gt;Usuario no valido&lt;/font&gt;" style="text;html=1;strokeColor=none;fillColor=none;align=center;verticalAlign=middle;whiteSpace=wrap;rounded=0;" parent="1" vertex="1">
          <mxGeometry x="3987.5" y="3990" width="190" height="40" as="geometry" />
        </mxCell>
        <mxCell id="Lk0_g97--WdqBCXoRrSc-110" value="" style="endArrow=classic;startArrow=classic;html=1;rounded=0;exitX=0.5;exitY=0;exitDx=0;exitDy=0;entryX=0.5;entryY=1;entryDx=0;entryDy=0;" parent="1" source="Lk0_g97--WdqBCXoRrSc-102" target="Lk0_g97--WdqBCXoRrSc-108" edge="1">
          <mxGeometry width="50" height="50" relative="1" as="geometry">
            <mxPoint x="3797.5" y="3990" as="sourcePoint" />
            <mxPoint x="3847.5" y="3940" as="targetPoint" />
          </mxGeometry>
        </mxCell>
        <mxCell id="Lk0_g97--WdqBCXoRrSc-111" value="" style="endArrow=classic;startArrow=classic;html=1;rounded=0;entryX=0.5;entryY=1;entryDx=0;entryDy=0;exitX=0.407;exitY=0.085;exitDx=0;exitDy=0;exitPerimeter=0;" parent="1" source="Lk0_g97--WdqBCXoRrSc-96" target="Lk0_g97--WdqBCXoRrSc-102" edge="1">
          <mxGeometry width="50" height="50" relative="1" as="geometry">
            <mxPoint x="3817.5" y="4100" as="sourcePoint" />
            <mxPoint x="3867.5" y="4050" as="targetPoint" />
          </mxGeometry>
        </mxCell>
        <mxCell id="Lk0_g97--WdqBCXoRrSc-112" value="" style="endArrow=classic;startArrow=classic;html=1;rounded=0;exitX=0.5;exitY=0;exitDx=0;exitDy=0;entryX=0.665;entryY=0.998;entryDx=0;entryDy=0;entryPerimeter=0;" parent="1" source="Lk0_g97--WdqBCXoRrSc-105" target="Lk0_g97--WdqBCXoRrSc-83" edge="1">
          <mxGeometry width="50" height="50" relative="1" as="geometry">
            <mxPoint x="4074" y="4000" as="sourcePoint" />
            <mxPoint x="4071" y="3940" as="targetPoint" />
          </mxGeometry>
        </mxCell>
        <mxCell id="Lk0_g97--WdqBCXoRrSc-113" value="" style="endArrow=classic;startArrow=classic;html=1;rounded=0;exitX=0.5;exitY=1;exitDx=0;exitDy=0;entryX=0.76;entryY=0.101;entryDx=0;entryDy=0;entryPerimeter=0;" parent="1" source="Lk0_g97--WdqBCXoRrSc-105" target="Lk0_g97--WdqBCXoRrSc-96" edge="1">
          <mxGeometry width="50" height="50" relative="1" as="geometry">
            <mxPoint x="4082.5" y="4010" as="sourcePoint" />
            <mxPoint x="4085.5" y="3953" as="targetPoint" />
          </mxGeometry>
        </mxCell>
        <mxCell id="Lk0_g97--WdqBCXoRrSc-115" value="" style="endArrow=classic;html=1;rounded=0;entryX=0.5;entryY=1;entryDx=0;entryDy=0;exitX=0.48;exitY=0.033;exitDx=0;exitDy=0;exitPerimeter=0;entryPerimeter=0;" parent="1" source="Lk0_g97--WdqBCXoRrSc-93" target="Lk0_g97--WdqBCXoRrSc-61" edge="1">
          <mxGeometry width="50" height="50" relative="1" as="geometry">
            <mxPoint x="1498" y="2207" as="sourcePoint" />
            <mxPoint x="1493" y="2040" as="targetPoint" />
            <Array as="points">
              <mxPoint x="1430" y="3310" />
              <mxPoint x="1468" y="2362" />
            </Array>
          </mxGeometry>
        </mxCell>
        <mxCell id="_XUYrqoo8mhQpUJpbrl_-1" value="" style="group" parent="1" vertex="1" connectable="0">
          <mxGeometry x="3750" y="140" width="356" height="160" as="geometry" />
        </mxCell>
        <mxCell id="_XUYrqoo8mhQpUJpbrl_-2" value="API Camionero" style="shape=folder;fontStyle=1;spacingTop=10;tabWidth=50;tabHeight=17;tabPosition=left;html=1;rounded=0;shadow=0;comic=0;labelBackgroundColor=none;strokeWidth=1;fontFamily=Verdana;fontSize=10;align=center;" parent="_XUYrqoo8mhQpUJpbrl_-1" vertex="1">
          <mxGeometry width="356" height="160" as="geometry" />
        </mxCell>
        <mxCell id="_XUYrqoo8mhQpUJpbrl_-3" value="" style="triangle;whiteSpace=wrap;html=1;rounded=0;shadow=0;comic=0;labelBackgroundColor=none;strokeWidth=1;fontFamily=Verdana;fontSize=10;align=center;rotation=-90;" parent="_XUYrqoo8mhQpUJpbrl_-1" vertex="1">
          <mxGeometry x="33" y="-6.599999999999994" width="20" height="20" as="geometry" />
        </mxCell>
        <mxCell id="_XUYrqoo8mhQpUJpbrl_-4" value="" style="group" parent="1" vertex="1" connectable="0">
          <mxGeometry x="3204" y="450" width="1490" height="220.5" as="geometry" />
        </mxCell>
        <mxCell id="_XUYrqoo8mhQpUJpbrl_-5" value="" style="shape=folder;fontStyle=1;spacingTop=10;tabWidth=123;tabHeight=24;tabPosition=left;html=1;rounded=0;shadow=0;comic=0;labelBackgroundColor=none;strokeWidth=1;fontFamily=Verdana;fontSize=10;align=center;" parent="_XUYrqoo8mhQpUJpbrl_-4" vertex="1">
          <mxGeometry width="280" height="130" as="geometry" />
        </mxCell>
        <mxCell id="_XUYrqoo8mhQpUJpbrl_-6" value="" style="triangle;whiteSpace=wrap;html=1;rounded=0;shadow=0;comic=0;labelBackgroundColor=none;strokeWidth=1;fontFamily=Verdana;fontSize=10;align=center;rotation=-90;" parent="_XUYrqoo8mhQpUJpbrl_-4" vertex="1">
          <mxGeometry x="96" y="2" width="15" height="20" as="geometry" />
        </mxCell>
        <mxCell id="_XUYrqoo8mhQpUJpbrl_-7" value="ID Camion&lt;br&gt;ID Lote&lt;br&gt;ID Destino&lt;br&gt;Estado&amp;nbsp; de envio" style="shape=folder;fontStyle=1;spacingTop=10;tabWidth=50;tabHeight=17;tabPosition=left;html=1;rounded=0;shadow=0;comic=0;labelBackgroundColor=none;strokeWidth=1;fontFamily=Verdana;fontSize=10;align=left;" parent="_XUYrqoo8mhQpUJpbrl_-4" vertex="1">
          <mxGeometry x="68.5" y="30" width="122" height="90" as="geometry" />
        </mxCell>
        <mxCell id="_XUYrqoo8mhQpUJpbrl_-8" value="Modelo De transporta" style="text;html=1;strokeColor=none;fillColor=none;align=center;verticalAlign=middle;whiteSpace=wrap;rounded=0;" parent="_XUYrqoo8mhQpUJpbrl_-4" vertex="1">
          <mxGeometry y="-8" width="109" height="40" as="geometry" />
        </mxCell>
        <mxCell id="_XUYrqoo8mhQpUJpbrl_-9" style="rounded=0;html=1;dashed=1;labelBackgroundColor=none;startFill=0;endArrow=open;endFill=0;endSize=10;fontFamily=Verdana;fontSize=10;entryX=0.592;entryY=0.2;entryPerimeter=0;edgeStyle=elbowEdgeStyle;" parent="1" source="_XUYrqoo8mhQpUJpbrl_-2" target="_XUYrqoo8mhQpUJpbrl_-5" edge="1">
          <mxGeometry relative="1" as="geometry" />
        </mxCell>
        <mxCell id="_XUYrqoo8mhQpUJpbrl_-10" style="rounded=0;html=1;dashed=1;labelBackgroundColor=none;startFill=0;endArrow=open;endFill=0;endSize=10;fontFamily=Verdana;fontSize=10;entryX=0.533;entryY=0.198;entryDx=0;entryDy=0;entryPerimeter=0;" parent="1" source="_XUYrqoo8mhQpUJpbrl_-5" target="_XUYrqoo8mhQpUJpbrl_-12" edge="1">
          <mxGeometry relative="1" as="geometry">
            <mxPoint x="3676" y="650" as="targetPoint" />
          </mxGeometry>
        </mxCell>
        <mxCell id="_XUYrqoo8mhQpUJpbrl_-11" value="" style="group" parent="1" vertex="1" connectable="0">
          <mxGeometry x="3195" y="870" width="280" height="130" as="geometry" />
        </mxCell>
        <mxCell id="_XUYrqoo8mhQpUJpbrl_-12" value="" style="shape=folder;fontStyle=1;spacingTop=10;tabWidth=123;tabHeight=24;tabPosition=left;html=1;rounded=0;shadow=0;comic=0;labelBackgroundColor=none;strokeWidth=1;fontFamily=Verdana;fontSize=10;align=center;" parent="_XUYrqoo8mhQpUJpbrl_-11" vertex="1">
          <mxGeometry width="280" height="130" as="geometry" />
        </mxCell>
        <mxCell id="_XUYrqoo8mhQpUJpbrl_-13" value="" style="triangle;whiteSpace=wrap;html=1;rounded=0;shadow=0;comic=0;labelBackgroundColor=none;strokeWidth=1;fontFamily=Verdana;fontSize=10;align=center;rotation=-90;" parent="_XUYrqoo8mhQpUJpbrl_-11" vertex="1">
          <mxGeometry x="96" y="2" width="15" height="20" as="geometry" />
        </mxCell>
        <mxCell id="_XUYrqoo8mhQpUJpbrl_-14" value="" style="shape=folder;fontStyle=1;spacingTop=10;tabWidth=50;tabHeight=17;tabPosition=left;html=1;rounded=0;shadow=0;comic=0;labelBackgroundColor=none;strokeWidth=1;fontFamily=Verdana;fontSize=10;align=center;" parent="_XUYrqoo8mhQpUJpbrl_-11" vertex="1">
          <mxGeometry x="84" y="40" width="136" height="80" as="geometry" />
        </mxCell>
        <mxCell id="_XUYrqoo8mhQpUJpbrl_-15" value="Controlador de transporte" style="text;html=1;strokeColor=none;fillColor=none;align=center;verticalAlign=middle;whiteSpace=wrap;rounded=0;" parent="_XUYrqoo8mhQpUJpbrl_-11" vertex="1">
          <mxGeometry x="-4" y="-6.5" width="100" height="37" as="geometry" />
        </mxCell>
        <mxCell id="_XUYrqoo8mhQpUJpbrl_-16" value="&lt;span style=&quot;color: rgb(240, 240, 240); font-family: Verdana; font-size: 10px; font-style: normal; font-variant-ligatures: normal; font-variant-caps: normal; font-weight: 700; letter-spacing: normal; orphans: 2; text-align: center; text-indent: 0px; text-transform: none; widows: 2; word-spacing: 0px; -webkit-text-stroke-width: 0px; background-color: rgb(42, 37, 47); text-decoration-thickness: initial; text-decoration-style: initial; text-decoration-color: initial; float: none; display: inline !important;&quot;&gt;Validacion de datos y &lt;br&gt;establecimientos de rutas o urls&lt;/span&gt;" style="text;whiteSpace=wrap;html=1;" parent="_XUYrqoo8mhQpUJpbrl_-11" vertex="1">
          <mxGeometry x="90" y="65" width="124" height="52.5" as="geometry" />
        </mxCell>
        <mxCell id="_XUYrqoo8mhQpUJpbrl_-17" value="" style="group" parent="1" vertex="1" connectable="0">
          <mxGeometry x="3578" y="458" width="280" height="130" as="geometry" />
        </mxCell>
        <mxCell id="_XUYrqoo8mhQpUJpbrl_-18" value="" style="shape=folder;fontStyle=1;spacingTop=10;tabWidth=123;tabHeight=24;tabPosition=left;html=1;rounded=0;shadow=0;comic=0;labelBackgroundColor=none;strokeWidth=1;fontFamily=Verdana;fontSize=10;align=center;" parent="_XUYrqoo8mhQpUJpbrl_-17" vertex="1">
          <mxGeometry width="280" height="130" as="geometry" />
        </mxCell>
        <mxCell id="_XUYrqoo8mhQpUJpbrl_-19" value="" style="triangle;whiteSpace=wrap;html=1;rounded=0;shadow=0;comic=0;labelBackgroundColor=none;strokeWidth=1;fontFamily=Verdana;fontSize=10;align=center;rotation=-90;" parent="_XUYrqoo8mhQpUJpbrl_-17" vertex="1">
          <mxGeometry x="96" y="2" width="15" height="20" as="geometry" />
        </mxCell>
        <mxCell id="_XUYrqoo8mhQpUJpbrl_-20" value="ID Destino&lt;br&gt;ID Almacen&lt;br&gt;Tipo Trayecto&lt;br&gt;Fecha Trayecto" style="shape=folder;fontStyle=1;spacingTop=10;tabWidth=50;tabHeight=17;tabPosition=left;html=1;rounded=0;shadow=0;comic=0;labelBackgroundColor=none;strokeWidth=1;fontFamily=Verdana;fontSize=10;align=center;" parent="_XUYrqoo8mhQpUJpbrl_-17" vertex="1">
          <mxGeometry x="68.5" y="30" width="122" height="90" as="geometry" />
        </mxCell>
        <mxCell id="_XUYrqoo8mhQpUJpbrl_-21" value="Modelo De Recorrido" style="text;html=1;strokeColor=none;fillColor=none;align=center;verticalAlign=middle;whiteSpace=wrap;rounded=0;" parent="_XUYrqoo8mhQpUJpbrl_-17" vertex="1">
          <mxGeometry y="-8" width="109" height="40" as="geometry" />
        </mxCell>
        <mxCell id="_XUYrqoo8mhQpUJpbrl_-22" value="" style="group" parent="1" vertex="1" connectable="0">
          <mxGeometry x="3569" y="878" width="280" height="130" as="geometry" />
        </mxCell>
        <mxCell id="_XUYrqoo8mhQpUJpbrl_-23" value="" style="shape=folder;fontStyle=1;spacingTop=10;tabWidth=123;tabHeight=24;tabPosition=left;html=1;rounded=0;shadow=0;comic=0;labelBackgroundColor=none;strokeWidth=1;fontFamily=Verdana;fontSize=10;align=center;" parent="_XUYrqoo8mhQpUJpbrl_-22" vertex="1">
          <mxGeometry width="280" height="130" as="geometry" />
        </mxCell>
        <mxCell id="_XUYrqoo8mhQpUJpbrl_-24" value="" style="triangle;whiteSpace=wrap;html=1;rounded=0;shadow=0;comic=0;labelBackgroundColor=none;strokeWidth=1;fontFamily=Verdana;fontSize=10;align=center;rotation=-90;" parent="_XUYrqoo8mhQpUJpbrl_-22" vertex="1">
          <mxGeometry x="96" y="2" width="15" height="20" as="geometry" />
        </mxCell>
        <mxCell id="_XUYrqoo8mhQpUJpbrl_-25" value="" style="shape=folder;fontStyle=1;spacingTop=10;tabWidth=50;tabHeight=17;tabPosition=left;html=1;rounded=0;shadow=0;comic=0;labelBackgroundColor=none;strokeWidth=1;fontFamily=Verdana;fontSize=10;align=center;" parent="_XUYrqoo8mhQpUJpbrl_-22" vertex="1">
          <mxGeometry x="84" y="40" width="136" height="80" as="geometry" />
        </mxCell>
        <mxCell id="_XUYrqoo8mhQpUJpbrl_-26" value="Controlador de Recorrido" style="text;html=1;strokeColor=none;fillColor=none;align=center;verticalAlign=middle;whiteSpace=wrap;rounded=0;" parent="_XUYrqoo8mhQpUJpbrl_-22" vertex="1">
          <mxGeometry x="-4" y="-6.5" width="100" height="37" as="geometry" />
        </mxCell>
        <mxCell id="_XUYrqoo8mhQpUJpbrl_-27" value="&lt;span style=&quot;color: rgb(240, 240, 240); font-family: Verdana; font-size: 10px; font-style: normal; font-variant-ligatures: normal; font-variant-caps: normal; font-weight: 700; letter-spacing: normal; orphans: 2; text-align: center; text-indent: 0px; text-transform: none; widows: 2; word-spacing: 0px; -webkit-text-stroke-width: 0px; background-color: rgb(42, 37, 47); text-decoration-thickness: initial; text-decoration-style: initial; text-decoration-color: initial; float: none; display: inline !important;&quot;&gt;Validacion de datos y &lt;br&gt;establecimientos de rutas o urls&lt;/span&gt;" style="text;whiteSpace=wrap;html=1;" parent="_XUYrqoo8mhQpUJpbrl_-22" vertex="1">
          <mxGeometry x="90" y="65" width="124" height="52.5" as="geometry" />
        </mxCell>
        <mxCell id="_XUYrqoo8mhQpUJpbrl_-28" style="rounded=0;html=1;dashed=1;labelBackgroundColor=none;startFill=0;endArrow=open;endFill=0;endSize=10;fontFamily=Verdana;fontSize=10;entryX=0.571;entryY=0.186;entryPerimeter=0;edgeStyle=elbowEdgeStyle;entryDx=0;entryDy=0;exitX=0.5;exitY=1;exitDx=0;exitDy=0;exitPerimeter=0;" parent="1" source="_XUYrqoo8mhQpUJpbrl_-2" target="_XUYrqoo8mhQpUJpbrl_-18" edge="1">
          <mxGeometry relative="1" as="geometry">
            <mxPoint x="3634" y="350" as="sourcePoint" />
            <mxPoint x="3380" y="486" as="targetPoint" />
          </mxGeometry>
        </mxCell>
        <mxCell id="_XUYrqoo8mhQpUJpbrl_-29" value="" style="group" parent="1" vertex="1" connectable="0">
          <mxGeometry x="3978" y="458" width="280" height="130" as="geometry" />
        </mxCell>
        <mxCell id="_XUYrqoo8mhQpUJpbrl_-30" value="" style="shape=folder;fontStyle=1;spacingTop=10;tabWidth=123;tabHeight=24;tabPosition=left;html=1;rounded=0;shadow=0;comic=0;labelBackgroundColor=none;strokeWidth=1;fontFamily=Verdana;fontSize=10;align=center;" parent="_XUYrqoo8mhQpUJpbrl_-29" vertex="1">
          <mxGeometry width="280" height="130" as="geometry" />
        </mxCell>
        <mxCell id="_XUYrqoo8mhQpUJpbrl_-31" value="" style="triangle;whiteSpace=wrap;html=1;rounded=0;shadow=0;comic=0;labelBackgroundColor=none;strokeWidth=1;fontFamily=Verdana;fontSize=10;align=center;rotation=-90;" parent="_XUYrqoo8mhQpUJpbrl_-29" vertex="1">
          <mxGeometry x="96" y="2" width="15" height="20" as="geometry" />
        </mxCell>
        <mxCell id="_XUYrqoo8mhQpUJpbrl_-32" value="ID Camion&lt;br&gt;ID Lote&lt;br&gt;Fecha Salida" style="shape=folder;fontStyle=1;spacingTop=10;tabWidth=50;tabHeight=17;tabPosition=left;html=1;rounded=0;shadow=0;comic=0;labelBackgroundColor=none;strokeWidth=1;fontFamily=Verdana;fontSize=10;align=center;" parent="_XUYrqoo8mhQpUJpbrl_-29" vertex="1">
          <mxGeometry x="68.5" y="30" width="122" height="90" as="geometry" />
        </mxCell>
        <mxCell id="_XUYrqoo8mhQpUJpbrl_-33" value="Modelo de Llevan" style="text;html=1;strokeColor=none;fillColor=none;align=center;verticalAlign=middle;whiteSpace=wrap;rounded=0;" parent="_XUYrqoo8mhQpUJpbrl_-29" vertex="1">
          <mxGeometry y="-8" width="109" height="40" as="geometry" />
        </mxCell>
        <mxCell id="_XUYrqoo8mhQpUJpbrl_-34" value="" style="group" parent="1" vertex="1" connectable="0">
          <mxGeometry x="3969" y="878" width="280" height="130" as="geometry" />
        </mxCell>
        <mxCell id="_XUYrqoo8mhQpUJpbrl_-35" value="" style="shape=folder;fontStyle=1;spacingTop=10;tabWidth=123;tabHeight=24;tabPosition=left;html=1;rounded=0;shadow=0;comic=0;labelBackgroundColor=none;strokeWidth=1;fontFamily=Verdana;fontSize=10;align=center;" parent="_XUYrqoo8mhQpUJpbrl_-34" vertex="1">
          <mxGeometry width="280" height="130" as="geometry" />
        </mxCell>
        <mxCell id="_XUYrqoo8mhQpUJpbrl_-36" value="" style="triangle;whiteSpace=wrap;html=1;rounded=0;shadow=0;comic=0;labelBackgroundColor=none;strokeWidth=1;fontFamily=Verdana;fontSize=10;align=center;rotation=-90;" parent="_XUYrqoo8mhQpUJpbrl_-34" vertex="1">
          <mxGeometry x="96" y="2" width="15" height="20" as="geometry" />
        </mxCell>
        <mxCell id="_XUYrqoo8mhQpUJpbrl_-37" value="" style="shape=folder;fontStyle=1;spacingTop=10;tabWidth=50;tabHeight=17;tabPosition=left;html=1;rounded=0;shadow=0;comic=0;labelBackgroundColor=none;strokeWidth=1;fontFamily=Verdana;fontSize=10;align=center;" parent="_XUYrqoo8mhQpUJpbrl_-34" vertex="1">
          <mxGeometry x="84" y="40" width="136" height="80" as="geometry" />
        </mxCell>
        <mxCell id="_XUYrqoo8mhQpUJpbrl_-38" value="Controlador de Llevan" style="text;html=1;strokeColor=none;fillColor=none;align=center;verticalAlign=middle;whiteSpace=wrap;rounded=0;" parent="_XUYrqoo8mhQpUJpbrl_-34" vertex="1">
          <mxGeometry x="-4" y="-6.5" width="100" height="37" as="geometry" />
        </mxCell>
        <mxCell id="_XUYrqoo8mhQpUJpbrl_-39" value="&lt;span style=&quot;color: rgb(240, 240, 240); font-family: Verdana; font-size: 10px; font-style: normal; font-variant-ligatures: normal; font-variant-caps: normal; font-weight: 700; letter-spacing: normal; orphans: 2; text-align: center; text-indent: 0px; text-transform: none; widows: 2; word-spacing: 0px; -webkit-text-stroke-width: 0px; background-color: rgb(42, 37, 47); text-decoration-thickness: initial; text-decoration-style: initial; text-decoration-color: initial; float: none; display: inline !important;&quot;&gt;Validacion de datos y &lt;br&gt;establecimientos de rutas o urls&lt;/span&gt;" style="text;whiteSpace=wrap;html=1;" parent="_XUYrqoo8mhQpUJpbrl_-34" vertex="1">
          <mxGeometry x="90" y="65" width="124" height="52.5" as="geometry" />
        </mxCell>
        <mxCell id="_XUYrqoo8mhQpUJpbrl_-40" style="rounded=0;html=1;dashed=1;labelBackgroundColor=none;startFill=0;endArrow=open;endFill=0;endSize=10;fontFamily=Verdana;fontSize=10;entryX=0.5;entryY=0;edgeStyle=elbowEdgeStyle;entryDx=0;entryDy=0;exitX=0.685;exitY=1.006;exitDx=0;exitDy=0;exitPerimeter=0;" parent="1" source="_XUYrqoo8mhQpUJpbrl_-2" target="_XUYrqoo8mhQpUJpbrl_-33" edge="1">
          <mxGeometry relative="1" as="geometry">
            <mxPoint x="3799" y="240" as="sourcePoint" />
            <mxPoint x="3748" y="492" as="targetPoint" />
            <Array as="points">
              <mxPoint x="3994" y="380" />
            </Array>
          </mxGeometry>
        </mxCell>
        <mxCell id="_XUYrqoo8mhQpUJpbrl_-41" value="" style="group" parent="1" vertex="1" connectable="0">
          <mxGeometry x="4328" y="468" width="280" height="130" as="geometry" />
        </mxCell>
        <mxCell id="_XUYrqoo8mhQpUJpbrl_-42" value="" style="shape=folder;fontStyle=1;spacingTop=10;tabWidth=123;tabHeight=24;tabPosition=left;html=1;rounded=0;shadow=0;comic=0;labelBackgroundColor=none;strokeWidth=1;fontFamily=Verdana;fontSize=10;align=center;" parent="_XUYrqoo8mhQpUJpbrl_-41" vertex="1">
          <mxGeometry width="280" height="130" as="geometry" />
        </mxCell>
        <mxCell id="_XUYrqoo8mhQpUJpbrl_-43" value="" style="triangle;whiteSpace=wrap;html=1;rounded=0;shadow=0;comic=0;labelBackgroundColor=none;strokeWidth=1;fontFamily=Verdana;fontSize=10;align=center;rotation=-90;" parent="_XUYrqoo8mhQpUJpbrl_-41" vertex="1">
          <mxGeometry x="96" y="2" width="15" height="20" as="geometry" />
        </mxCell>
        <mxCell id="_XUYrqoo8mhQpUJpbrl_-44" value="ID Destino&lt;br&gt;Calle&lt;br&gt;Num&lt;br&gt;Esq&lt;br&gt;Bajalogica&lt;br&gt;" style="shape=folder;fontStyle=1;spacingTop=10;tabWidth=50;tabHeight=17;tabPosition=left;html=1;rounded=0;shadow=0;comic=0;labelBackgroundColor=none;strokeWidth=1;fontFamily=Verdana;fontSize=10;align=center;" parent="_XUYrqoo8mhQpUJpbrl_-41" vertex="1">
          <mxGeometry x="68.5" y="30" width="122" height="90" as="geometry" />
        </mxCell>
        <mxCell id="_XUYrqoo8mhQpUJpbrl_-45" value="Modelo de Destino&lt;br&gt;" style="text;html=1;strokeColor=none;fillColor=none;align=center;verticalAlign=middle;whiteSpace=wrap;rounded=0;" parent="_XUYrqoo8mhQpUJpbrl_-41" vertex="1">
          <mxGeometry y="-8" width="109" height="40" as="geometry" />
        </mxCell>
        <mxCell id="_XUYrqoo8mhQpUJpbrl_-46" value="" style="group" parent="1" vertex="1" connectable="0">
          <mxGeometry x="4319" y="888" width="280" height="130" as="geometry" />
        </mxCell>
        <mxCell id="_XUYrqoo8mhQpUJpbrl_-47" value="" style="shape=folder;fontStyle=1;spacingTop=10;tabWidth=123;tabHeight=24;tabPosition=left;html=1;rounded=0;shadow=0;comic=0;labelBackgroundColor=none;strokeWidth=1;fontFamily=Verdana;fontSize=10;align=center;" parent="_XUYrqoo8mhQpUJpbrl_-46" vertex="1">
          <mxGeometry width="280" height="130" as="geometry" />
        </mxCell>
        <mxCell id="_XUYrqoo8mhQpUJpbrl_-48" value="" style="triangle;whiteSpace=wrap;html=1;rounded=0;shadow=0;comic=0;labelBackgroundColor=none;strokeWidth=1;fontFamily=Verdana;fontSize=10;align=center;rotation=-90;" parent="_XUYrqoo8mhQpUJpbrl_-46" vertex="1">
          <mxGeometry x="96" y="2" width="15" height="20" as="geometry" />
        </mxCell>
        <mxCell id="_XUYrqoo8mhQpUJpbrl_-49" value="" style="shape=folder;fontStyle=1;spacingTop=10;tabWidth=50;tabHeight=17;tabPosition=left;html=1;rounded=0;shadow=0;comic=0;labelBackgroundColor=none;strokeWidth=1;fontFamily=Verdana;fontSize=10;align=center;" parent="_XUYrqoo8mhQpUJpbrl_-46" vertex="1">
          <mxGeometry x="84" y="40" width="136" height="80" as="geometry" />
        </mxCell>
        <mxCell id="_XUYrqoo8mhQpUJpbrl_-50" value="Controlador de Destino" style="text;html=1;strokeColor=none;fillColor=none;align=center;verticalAlign=middle;whiteSpace=wrap;rounded=0;" parent="_XUYrqoo8mhQpUJpbrl_-46" vertex="1">
          <mxGeometry x="-4" y="-6.5" width="100" height="37" as="geometry" />
        </mxCell>
        <mxCell id="_XUYrqoo8mhQpUJpbrl_-51" value="&lt;span style=&quot;color: rgb(240, 240, 240); font-family: Verdana; font-size: 10px; font-style: normal; font-variant-ligatures: normal; font-variant-caps: normal; font-weight: 700; letter-spacing: normal; orphans: 2; text-align: center; text-indent: 0px; text-transform: none; widows: 2; word-spacing: 0px; -webkit-text-stroke-width: 0px; background-color: rgb(42, 37, 47); text-decoration-thickness: initial; text-decoration-style: initial; text-decoration-color: initial; float: none; display: inline !important;&quot;&gt;Validacion de datos y &lt;br&gt;establecimientos de rutas o urls&lt;/span&gt;" style="text;whiteSpace=wrap;html=1;" parent="_XUYrqoo8mhQpUJpbrl_-46" vertex="1">
          <mxGeometry x="90" y="65" width="124" height="52.5" as="geometry" />
        </mxCell>
        <mxCell id="_XUYrqoo8mhQpUJpbrl_-52" value="&lt;font style=&quot;font-size: 29px;&quot;&gt;Peticiones HTTP&lt;/font&gt;" style="rounded=1;whiteSpace=wrap;html=1;" parent="1" vertex="1">
          <mxGeometry x="3195" y="1300" width="1385" height="60" as="geometry" />
        </mxCell>
        <mxCell id="_XUYrqoo8mhQpUJpbrl_-53" style="rounded=0;html=1;dashed=1;labelBackgroundColor=none;startFill=0;endArrow=open;endFill=0;endSize=10;fontFamily=Verdana;fontSize=10;edgeStyle=elbowEdgeStyle;exitX=1.006;exitY=0.444;exitDx=0;exitDy=0;exitPerimeter=0;" parent="1" source="_XUYrqoo8mhQpUJpbrl_-2" edge="1">
          <mxGeometry relative="1" as="geometry">
            <mxPoint x="4319" y="210" as="sourcePoint" />
            <mxPoint x="4390" y="470" as="targetPoint" />
            <Array as="points">
              <mxPoint x="4390" y="300" />
            </Array>
          </mxGeometry>
        </mxCell>
        <mxCell id="_XUYrqoo8mhQpUJpbrl_-54" style="rounded=0;html=1;dashed=1;labelBackgroundColor=none;startFill=0;endArrow=open;endFill=0;endSize=10;fontFamily=Verdana;fontSize=10;entryX=0.375;entryY=-0.023;edgeStyle=elbowEdgeStyle;entryDx=0;entryDy=0;exitX=0.5;exitY=1;exitDx=0;exitDy=0;exitPerimeter=0;entryPerimeter=0;" parent="1" source="_XUYrqoo8mhQpUJpbrl_-18" target="_XUYrqoo8mhQpUJpbrl_-23" edge="1">
          <mxGeometry relative="1" as="geometry">
            <mxPoint x="3864" y="227" as="sourcePoint" />
            <mxPoint x="4043" y="460" as="targetPoint" />
            <Array as="points">
              <mxPoint x="3718" y="710" />
            </Array>
          </mxGeometry>
        </mxCell>
        <mxCell id="_XUYrqoo8mhQpUJpbrl_-55" style="rounded=0;html=1;dashed=1;labelBackgroundColor=none;startFill=0;endArrow=open;endFill=0;endSize=10;fontFamily=Verdana;fontSize=10;entryX=0.75;entryY=0;edgeStyle=elbowEdgeStyle;entryDx=0;entryDy=0;exitX=0.5;exitY=1;exitDx=0;exitDy=0;exitPerimeter=0;" parent="1" source="_XUYrqoo8mhQpUJpbrl_-30" target="_XUYrqoo8mhQpUJpbrl_-38" edge="1">
          <mxGeometry relative="1" as="geometry">
            <mxPoint x="4144" y="670.5" as="sourcePoint" />
            <mxPoint x="4100" y="957.5" as="targetPoint" />
            <Array as="points">
              <mxPoint x="4050" y="740" />
            </Array>
          </mxGeometry>
        </mxCell>
        <mxCell id="_XUYrqoo8mhQpUJpbrl_-56" style="rounded=0;html=1;dashed=1;labelBackgroundColor=none;startFill=0;endArrow=open;endFill=0;endSize=10;fontFamily=Verdana;fontSize=10;entryX=0.75;entryY=0;edgeStyle=elbowEdgeStyle;entryDx=0;entryDy=0;" parent="1" source="_XUYrqoo8mhQpUJpbrl_-42" target="_XUYrqoo8mhQpUJpbrl_-50" edge="1">
          <mxGeometry relative="1" as="geometry">
            <mxPoint x="4518" y="630" as="sourcePoint" />
            <mxPoint x="4440" y="914" as="targetPoint" />
            <Array as="points" />
          </mxGeometry>
        </mxCell>
        <mxCell id="_XUYrqoo8mhQpUJpbrl_-57" value="" style="group" parent="1" vertex="1" connectable="0">
          <mxGeometry x="3268" y="1630" width="1260" height="210" as="geometry" />
        </mxCell>
        <mxCell id="_XUYrqoo8mhQpUJpbrl_-58" value="" style="shape=folder;fontStyle=1;spacingTop=10;tabWidth=123;tabHeight=24;tabPosition=left;html=1;rounded=0;shadow=0;comic=0;labelBackgroundColor=none;strokeWidth=1;fontFamily=Verdana;fontSize=10;align=center;" parent="_XUYrqoo8mhQpUJpbrl_-57" vertex="1">
          <mxGeometry width="1260" height="210" as="geometry" />
        </mxCell>
        <mxCell id="_XUYrqoo8mhQpUJpbrl_-59" value="" style="shape=folder;fontStyle=1;spacingTop=10;tabWidth=50;tabHeight=17;tabPosition=left;html=1;rounded=0;shadow=0;comic=0;labelBackgroundColor=none;strokeWidth=1;fontFamily=Verdana;fontSize=10;align=center;" parent="_XUYrqoo8mhQpUJpbrl_-57" vertex="1">
          <mxGeometry x="378" y="46.15" width="612" height="133.85" as="geometry" />
        </mxCell>
        <mxCell id="_XUYrqoo8mhQpUJpbrl_-60" value="Interfaz camionero" style="text;html=1;strokeColor=none;fillColor=none;align=center;verticalAlign=middle;whiteSpace=wrap;rounded=0;" parent="_XUYrqoo8mhQpUJpbrl_-57" vertex="1">
          <mxGeometry x="-30" y="-7.5" width="180" height="42.69" as="geometry" />
        </mxCell>
        <mxCell id="_XUYrqoo8mhQpUJpbrl_-61" value="&lt;div style=&quot;font-size: 15px;&quot;&gt;&lt;font face=&quot;Verdana&quot;&gt;&lt;span style=&quot;background-color: rgb(42, 37, 47);&quot;&gt;&lt;b&gt;Ventana para visualizar los lotes&amp;nbsp; y productos cargados.&lt;/b&gt;&lt;/span&gt;&lt;/font&gt;&lt;/div&gt;&lt;div style=&quot;font-size: 15px;&quot;&gt;&lt;font face=&quot;Verdana&quot;&gt;&lt;span style=&quot;background-color: rgb(42, 37, 47);&quot;&gt;&lt;b&gt;Ventana para visualizar el trayecto y tipo de trayecto de cada lote.&lt;/b&gt;&lt;/span&gt;&lt;/font&gt;&lt;/div&gt;" style="text;whiteSpace=wrap;html=1;align=left;" parent="_XUYrqoo8mhQpUJpbrl_-57" vertex="1">
          <mxGeometry x="405" y="75" width="415" height="95" as="geometry" />
        </mxCell>
        <mxCell id="_XUYrqoo8mhQpUJpbrl_-62" value="&lt;font style=&quot;font-size: 7px;&quot;&gt;Ventanas-Gui&lt;/font&gt;" style="text;html=1;strokeColor=none;fillColor=none;align=center;verticalAlign=middle;whiteSpace=wrap;rounded=0;" parent="_XUYrqoo8mhQpUJpbrl_-57" vertex="1">
          <mxGeometry x="350" y="46.15" width="100" height="20" as="geometry" />
        </mxCell>
        <mxCell id="_XUYrqoo8mhQpUJpbrl_-63" value="&lt;font style=&quot;font-size: 50px;&quot;&gt;Logica del negocio&lt;/font&gt;" style="text;html=1;strokeColor=none;fillColor=none;align=center;verticalAlign=middle;whiteSpace=wrap;rounded=0;" parent="1" vertex="1">
          <mxGeometry x="2560" y="490" width="480" height="30" as="geometry" />
        </mxCell>
        <mxCell id="_XUYrqoo8mhQpUJpbrl_-64" value="&lt;span style=&quot;font-size: 50px;&quot;&gt;Interprete de datos recibidos&lt;/span&gt;" style="text;html=1;strokeColor=none;fillColor=none;align=center;verticalAlign=middle;whiteSpace=wrap;rounded=0;" parent="1" vertex="1">
          <mxGeometry x="2550" y="878" width="480" height="140" as="geometry" />
        </mxCell>
        <mxCell id="_XUYrqoo8mhQpUJpbrl_-65" value="" style="shape=flexArrow;endArrow=classic;html=1;rounded=0;width=20;endSize=12.142857142857142;endWidth=96.19047619047619;" parent="1" edge="1">
          <mxGeometry width="50" height="50" relative="1" as="geometry">
            <mxPoint x="3010" y="920" as="sourcePoint" />
            <mxPoint x="3170" y="920" as="targetPoint" />
          </mxGeometry>
        </mxCell>
        <mxCell id="_XUYrqoo8mhQpUJpbrl_-66" value="" style="shape=flexArrow;endArrow=classic;html=1;rounded=0;width=20;endSize=12.142857142857142;endWidth=96.19047619047619;" parent="1" edge="1">
          <mxGeometry width="50" height="50" relative="1" as="geometry">
            <mxPoint x="3035" y="510" as="sourcePoint" />
            <mxPoint x="3195" y="510" as="targetPoint" />
          </mxGeometry>
        </mxCell>
        <mxCell id="_XUYrqoo8mhQpUJpbrl_-67" value="" style="endArrow=classic;html=1;rounded=0;entryX=0.5;entryY=1;entryDx=0;entryDy=0;exitX=0.494;exitY=0.116;exitDx=0;exitDy=0;exitPerimeter=0;" parent="1" source="_XUYrqoo8mhQpUJpbrl_-58" target="_XUYrqoo8mhQpUJpbrl_-52" edge="1">
          <mxGeometry width="50" height="50" relative="1" as="geometry">
            <mxPoint x="3898" y="1769.9999999999995" as="sourcePoint" />
            <mxPoint x="3898" y="1430" as="targetPoint" />
          </mxGeometry>
        </mxCell>
        <mxCell id="_XUYrqoo8mhQpUJpbrl_-68" value="" style="endArrow=classic;html=1;rounded=0;entryX=0.5;entryY=1;entryDx=0;entryDy=0;exitX=0.149;exitY=0.033;exitDx=0;exitDy=0;exitPerimeter=0;" parent="1" source="_XUYrqoo8mhQpUJpbrl_-52" edge="1">
          <mxGeometry width="50" height="50" relative="1" as="geometry">
            <mxPoint x="3400" y="1340" as="sourcePoint" />
            <mxPoint x="3400" y="1000" as="targetPoint" />
          </mxGeometry>
        </mxCell>
        <mxCell id="_XUYrqoo8mhQpUJpbrl_-69" value="" style="endArrow=classic;html=1;rounded=0;entryX=0.5;entryY=1;entryDx=0;entryDy=0;entryPerimeter=0;exitX=0.373;exitY=0.033;exitDx=0;exitDy=0;exitPerimeter=0;" parent="1" source="_XUYrqoo8mhQpUJpbrl_-52" target="_XUYrqoo8mhQpUJpbrl_-23" edge="1">
          <mxGeometry width="50" height="50" relative="1" as="geometry">
            <mxPoint x="3730" y="1290" as="sourcePoint" />
            <mxPoint x="3410" y="1010" as="targetPoint" />
          </mxGeometry>
        </mxCell>
        <mxCell id="_XUYrqoo8mhQpUJpbrl_-70" value="" style="endArrow=classic;html=1;rounded=0;exitX=0.662;exitY=-0.033;exitDx=0;exitDy=0;exitPerimeter=0;" parent="1" source="_XUYrqoo8mhQpUJpbrl_-52" edge="1">
          <mxGeometry width="50" height="50" relative="1" as="geometry">
            <mxPoint x="3740" y="1300" as="sourcePoint" />
            <mxPoint x="4113" y="1010" as="targetPoint" />
          </mxGeometry>
        </mxCell>
        <mxCell id="_XUYrqoo8mhQpUJpbrl_-71" value="" style="endArrow=classic;html=1;rounded=0;exitX=0.917;exitY=-0.033;exitDx=0;exitDy=0;exitPerimeter=0;entryX=0.5;entryY=1;entryDx=0;entryDy=0;entryPerimeter=0;" parent="1" source="_XUYrqoo8mhQpUJpbrl_-52" target="_XUYrqoo8mhQpUJpbrl_-47" edge="1">
          <mxGeometry width="50" height="50" relative="1" as="geometry">
            <mxPoint x="4461" y="1308" as="sourcePoint" />
            <mxPoint x="4466" y="1020" as="targetPoint" />
          </mxGeometry>
        </mxCell>
        <mxCell id="_XUYrqoo8mhQpUJpbrl_-72" value="&lt;span style=&quot;font-size: 50px;&quot;&gt;Capa visual&lt;/span&gt;" style="text;html=1;strokeColor=none;fillColor=none;align=center;verticalAlign=middle;whiteSpace=wrap;rounded=0;" parent="1" vertex="1">
          <mxGeometry x="2570" y="1680" width="480" height="140" as="geometry" />
        </mxCell>
        <mxCell id="_XUYrqoo8mhQpUJpbrl_-73" value="" style="shape=flexArrow;endArrow=classic;html=1;rounded=0;width=20;endSize=12.142857142857142;endWidth=96.19047619047619;" parent="1" edge="1">
          <mxGeometry width="50" height="50" relative="1" as="geometry">
            <mxPoint x="3030" y="1722" as="sourcePoint" />
            <mxPoint x="3190" y="1722" as="targetPoint" />
          </mxGeometry>
        </mxCell>
        <mxCell id="_XUYrqoo8mhQpUJpbrl_-74" value="" style="group" parent="1" vertex="1" connectable="0">
          <mxGeometry x="4699" y="478" width="280" height="130" as="geometry" />
        </mxCell>
        <mxCell id="_XUYrqoo8mhQpUJpbrl_-75" value="" style="shape=folder;fontStyle=1;spacingTop=10;tabWidth=123;tabHeight=24;tabPosition=left;html=1;rounded=0;shadow=0;comic=0;labelBackgroundColor=none;strokeWidth=1;fontFamily=Verdana;fontSize=10;align=center;" parent="_XUYrqoo8mhQpUJpbrl_-74" vertex="1">
          <mxGeometry width="280" height="130" as="geometry" />
        </mxCell>
        <mxCell id="_XUYrqoo8mhQpUJpbrl_-76" value="" style="triangle;whiteSpace=wrap;html=1;rounded=0;shadow=0;comic=0;labelBackgroundColor=none;strokeWidth=1;fontFamily=Verdana;fontSize=10;align=center;rotation=-90;" parent="_XUYrqoo8mhQpUJpbrl_-74" vertex="1">
          <mxGeometry x="96" y="2" width="15" height="20" as="geometry" />
        </mxCell>
        <mxCell id="_XUYrqoo8mhQpUJpbrl_-77" value="ID Camionero&lt;br&gt;ID Camion" style="shape=folder;fontStyle=1;spacingTop=10;tabWidth=50;tabHeight=17;tabPosition=left;html=1;rounded=0;shadow=0;comic=0;labelBackgroundColor=none;strokeWidth=1;fontFamily=Verdana;fontSize=10;align=center;" parent="_XUYrqoo8mhQpUJpbrl_-74" vertex="1">
          <mxGeometry x="68.5" y="30" width="122" height="90" as="geometry" />
        </mxCell>
        <mxCell id="_XUYrqoo8mhQpUJpbrl_-78" value="Modelo de Conduce" style="text;html=1;strokeColor=none;fillColor=none;align=center;verticalAlign=middle;whiteSpace=wrap;rounded=0;" parent="_XUYrqoo8mhQpUJpbrl_-74" vertex="1">
          <mxGeometry y="-8" width="109" height="40" as="geometry" />
        </mxCell>
        <mxCell id="_XUYrqoo8mhQpUJpbrl_-79" value="" style="group" parent="1" vertex="1" connectable="0">
          <mxGeometry x="4690" y="898" width="280" height="130" as="geometry" />
        </mxCell>
        <mxCell id="_XUYrqoo8mhQpUJpbrl_-80" value="" style="shape=folder;fontStyle=1;spacingTop=10;tabWidth=123;tabHeight=24;tabPosition=left;html=1;rounded=0;shadow=0;comic=0;labelBackgroundColor=none;strokeWidth=1;fontFamily=Verdana;fontSize=10;align=center;" parent="_XUYrqoo8mhQpUJpbrl_-79" vertex="1">
          <mxGeometry width="280" height="130" as="geometry" />
        </mxCell>
        <mxCell id="_XUYrqoo8mhQpUJpbrl_-81" value="" style="triangle;whiteSpace=wrap;html=1;rounded=0;shadow=0;comic=0;labelBackgroundColor=none;strokeWidth=1;fontFamily=Verdana;fontSize=10;align=center;rotation=-90;" parent="_XUYrqoo8mhQpUJpbrl_-79" vertex="1">
          <mxGeometry x="96" y="2" width="15" height="20" as="geometry" />
        </mxCell>
        <mxCell id="_XUYrqoo8mhQpUJpbrl_-82" value="" style="shape=folder;fontStyle=1;spacingTop=10;tabWidth=50;tabHeight=17;tabPosition=left;html=1;rounded=0;shadow=0;comic=0;labelBackgroundColor=none;strokeWidth=1;fontFamily=Verdana;fontSize=10;align=center;" parent="_XUYrqoo8mhQpUJpbrl_-79" vertex="1">
          <mxGeometry x="84" y="40" width="136" height="80" as="geometry" />
        </mxCell>
        <mxCell id="_XUYrqoo8mhQpUJpbrl_-83" value="Controlador de Conduce" style="text;html=1;strokeColor=none;fillColor=none;align=center;verticalAlign=middle;whiteSpace=wrap;rounded=0;" parent="_XUYrqoo8mhQpUJpbrl_-79" vertex="1">
          <mxGeometry x="-4" y="-6.5" width="100" height="37" as="geometry" />
        </mxCell>
        <mxCell id="_XUYrqoo8mhQpUJpbrl_-84" value="&lt;span style=&quot;color: rgb(240, 240, 240); font-family: Verdana; font-size: 10px; font-style: normal; font-variant-ligatures: normal; font-variant-caps: normal; font-weight: 700; letter-spacing: normal; orphans: 2; text-align: center; text-indent: 0px; text-transform: none; widows: 2; word-spacing: 0px; -webkit-text-stroke-width: 0px; background-color: rgb(42, 37, 47); text-decoration-thickness: initial; text-decoration-style: initial; text-decoration-color: initial; float: none; display: inline !important;&quot;&gt;Validacion de datos y &lt;br&gt;establecimientos de rutas o urls&lt;/span&gt;" style="text;whiteSpace=wrap;html=1;" parent="_XUYrqoo8mhQpUJpbrl_-79" vertex="1">
          <mxGeometry x="90" y="65" width="124" height="52.5" as="geometry" />
        </mxCell>
        <mxCell id="_XUYrqoo8mhQpUJpbrl_-85" style="rounded=0;html=1;dashed=1;labelBackgroundColor=none;startFill=0;endArrow=open;endFill=0;endSize=10;fontFamily=Verdana;fontSize=10;entryX=0.75;entryY=0;edgeStyle=elbowEdgeStyle;entryDx=0;entryDy=0;" parent="1" source="_XUYrqoo8mhQpUJpbrl_-75" target="_XUYrqoo8mhQpUJpbrl_-83" edge="1">
          <mxGeometry relative="1" as="geometry">
            <mxPoint x="4889" y="640" as="sourcePoint" />
            <mxPoint x="4811" y="924" as="targetPoint" />
            <Array as="points" />
          </mxGeometry>
        </mxCell>
        <mxCell id="_XUYrqoo8mhQpUJpbrl_-86" style="rounded=0;html=1;dashed=1;labelBackgroundColor=none;startFill=0;endArrow=open;endFill=0;endSize=10;fontFamily=Verdana;fontSize=10;entryX=1;entryY=0.5;edgeStyle=elbowEdgeStyle;entryDx=0;entryDy=0;exitX=0.5;exitY=1;exitDx=0;exitDy=0;exitPerimeter=0;" parent="1" source="_XUYrqoo8mhQpUJpbrl_-80" target="_XUYrqoo8mhQpUJpbrl_-52" edge="1">
          <mxGeometry relative="1" as="geometry">
            <mxPoint x="4830.27" y="1140" as="sourcePoint" />
            <mxPoint x="4829.27" y="1424" as="targetPoint" />
            <Array as="points">
              <mxPoint x="4820" y="1170" />
            </Array>
          </mxGeometry>
        </mxCell>
        <mxCell id="_XUYrqoo8mhQpUJpbrl_-87" style="rounded=0;html=1;dashed=1;labelBackgroundColor=none;startFill=0;endArrow=open;endFill=0;endSize=10;fontFamily=Verdana;fontSize=10;entryX=0.982;entryY=0.131;edgeStyle=elbowEdgeStyle;entryDx=0;entryDy=0;exitX=1;exitY=1;exitDx=0;exitDy=0;entryPerimeter=0;" parent="1" source="_XUYrqoo8mhQpUJpbrl_-52" target="_XUYrqoo8mhQpUJpbrl_-58" edge="1">
          <mxGeometry relative="1" as="geometry">
            <mxPoint x="4630" y="1378" as="sourcePoint" />
            <mxPoint x="4380" y="1680" as="targetPoint" />
            <Array as="points">
              <mxPoint x="4510" y="1510" />
            </Array>
          </mxGeometry>
        </mxCell>
        <mxCell id="_XUYrqoo8mhQpUJpbrl_-88" value="" style="endArrow=classic;html=1;rounded=0;entryX=0.435;entryY=1.076;entryDx=0;entryDy=0;entryPerimeter=0;exitX=0.412;exitY=-0.017;exitDx=0;exitDy=0;exitPerimeter=0;" parent="1" source="Lk0_g97--WdqBCXoRrSc-93" target="_XUYrqoo8mhQpUJpbrl_-58" edge="1">
          <mxGeometry width="50" height="50" relative="1" as="geometry">
            <mxPoint x="3816" y="3310" as="sourcePoint" />
            <mxPoint x="3830" y="1970" as="targetPoint" />
            <Array as="points">
              <mxPoint x="3810" y="2360" />
            </Array>
          </mxGeometry>
        </mxCell>
        <mxCell id="_XUYrqoo8mhQpUJpbrl_-89" value="" style="group" parent="1" vertex="1" connectable="0">
          <mxGeometry x="7140" y="240" width="356" height="160" as="geometry" />
        </mxCell>
        <mxCell id="_XUYrqoo8mhQpUJpbrl_-90" value="API Seguimiento" style="shape=folder;fontStyle=1;spacingTop=10;tabWidth=50;tabHeight=17;tabPosition=left;html=1;rounded=0;shadow=0;comic=0;labelBackgroundColor=none;strokeWidth=1;fontFamily=Verdana;fontSize=10;align=center;" parent="_XUYrqoo8mhQpUJpbrl_-89" vertex="1">
          <mxGeometry width="356" height="160" as="geometry" />
        </mxCell>
        <mxCell id="_XUYrqoo8mhQpUJpbrl_-91" value="" style="triangle;whiteSpace=wrap;html=1;rounded=0;shadow=0;comic=0;labelBackgroundColor=none;strokeWidth=1;fontFamily=Verdana;fontSize=10;align=center;rotation=-90;" parent="_XUYrqoo8mhQpUJpbrl_-89" vertex="1">
          <mxGeometry x="33" y="-6.599999999999994" width="20" height="20" as="geometry" />
        </mxCell>
        <mxCell id="_XUYrqoo8mhQpUJpbrl_-105" value="" style="group" parent="1" vertex="1" connectable="0">
          <mxGeometry x="6968" y="558" width="280" height="130" as="geometry" />
        </mxCell>
        <mxCell id="_XUYrqoo8mhQpUJpbrl_-106" value="" style="shape=folder;fontStyle=1;spacingTop=10;tabWidth=123;tabHeight=24;tabPosition=left;html=1;rounded=0;shadow=0;comic=0;labelBackgroundColor=none;strokeWidth=1;fontFamily=Verdana;fontSize=10;align=center;" parent="_XUYrqoo8mhQpUJpbrl_-105" vertex="1">
          <mxGeometry width="280" height="130" as="geometry" />
        </mxCell>
        <mxCell id="_XUYrqoo8mhQpUJpbrl_-107" value="" style="triangle;whiteSpace=wrap;html=1;rounded=0;shadow=0;comic=0;labelBackgroundColor=none;strokeWidth=1;fontFamily=Verdana;fontSize=10;align=center;rotation=-90;" parent="_XUYrqoo8mhQpUJpbrl_-105" vertex="1">
          <mxGeometry x="96" y="2" width="15" height="20" as="geometry" />
        </mxCell>
        <mxCell id="_XUYrqoo8mhQpUJpbrl_-108" value="ID Camion&lt;br&gt;ID Lote&lt;br&gt;ID Destino&lt;br&gt;Estado" style="shape=folder;fontStyle=1;spacingTop=10;tabWidth=50;tabHeight=17;tabPosition=left;html=1;rounded=0;shadow=0;comic=0;labelBackgroundColor=none;strokeWidth=1;fontFamily=Verdana;fontSize=10;align=center;" parent="_XUYrqoo8mhQpUJpbrl_-105" vertex="1">
          <mxGeometry x="68.5" y="30" width="122" height="90" as="geometry" />
        </mxCell>
        <mxCell id="_XUYrqoo8mhQpUJpbrl_-109" value="Modelo de Transporta" style="text;html=1;strokeColor=none;fillColor=none;align=center;verticalAlign=middle;whiteSpace=wrap;rounded=0;" parent="_XUYrqoo8mhQpUJpbrl_-105" vertex="1">
          <mxGeometry y="-8" width="109" height="40" as="geometry" />
        </mxCell>
        <mxCell id="_XUYrqoo8mhQpUJpbrl_-110" value="" style="group" parent="1" vertex="1" connectable="0">
          <mxGeometry x="6959" y="978" width="280" height="130" as="geometry" />
        </mxCell>
        <mxCell id="_XUYrqoo8mhQpUJpbrl_-111" value="" style="shape=folder;fontStyle=1;spacingTop=10;tabWidth=123;tabHeight=24;tabPosition=left;html=1;rounded=0;shadow=0;comic=0;labelBackgroundColor=none;strokeWidth=1;fontFamily=Verdana;fontSize=10;align=center;" parent="_XUYrqoo8mhQpUJpbrl_-110" vertex="1">
          <mxGeometry width="280" height="130" as="geometry" />
        </mxCell>
        <mxCell id="_XUYrqoo8mhQpUJpbrl_-112" value="" style="triangle;whiteSpace=wrap;html=1;rounded=0;shadow=0;comic=0;labelBackgroundColor=none;strokeWidth=1;fontFamily=Verdana;fontSize=10;align=center;rotation=-90;" parent="_XUYrqoo8mhQpUJpbrl_-110" vertex="1">
          <mxGeometry x="96" y="2" width="15" height="20" as="geometry" />
        </mxCell>
        <mxCell id="_XUYrqoo8mhQpUJpbrl_-113" value="" style="shape=folder;fontStyle=1;spacingTop=10;tabWidth=50;tabHeight=17;tabPosition=left;html=1;rounded=0;shadow=0;comic=0;labelBackgroundColor=none;strokeWidth=1;fontFamily=Verdana;fontSize=10;align=center;" parent="_XUYrqoo8mhQpUJpbrl_-110" vertex="1">
          <mxGeometry x="84" y="40" width="136" height="80" as="geometry" />
        </mxCell>
        <mxCell id="_XUYrqoo8mhQpUJpbrl_-114" value="Controlador de Transporta" style="text;html=1;strokeColor=none;fillColor=none;align=center;verticalAlign=middle;whiteSpace=wrap;rounded=0;" parent="_XUYrqoo8mhQpUJpbrl_-110" vertex="1">
          <mxGeometry x="-4" y="-6.5" width="100" height="37" as="geometry" />
        </mxCell>
        <mxCell id="_XUYrqoo8mhQpUJpbrl_-115" value="&lt;span style=&quot;color: rgb(240, 240, 240); font-family: Verdana; font-size: 10px; font-style: normal; font-variant-ligatures: normal; font-variant-caps: normal; font-weight: 700; letter-spacing: normal; orphans: 2; text-align: center; text-indent: 0px; text-transform: none; widows: 2; word-spacing: 0px; -webkit-text-stroke-width: 0px; background-color: rgb(42, 37, 47); text-decoration-thickness: initial; text-decoration-style: initial; text-decoration-color: initial; float: none; display: inline !important;&quot;&gt;Validacion de datos y &lt;br&gt;establecimientos de rutas o urls&lt;/span&gt;" style="text;whiteSpace=wrap;html=1;" parent="_XUYrqoo8mhQpUJpbrl_-110" vertex="1">
          <mxGeometry x="90" y="65" width="124" height="52.5" as="geometry" />
        </mxCell>
        <mxCell id="_XUYrqoo8mhQpUJpbrl_-116" style="rounded=0;html=1;dashed=1;labelBackgroundColor=none;startFill=0;endArrow=open;endFill=0;endSize=10;fontFamily=Verdana;fontSize=10;entryX=0.571;entryY=0.186;entryPerimeter=0;edgeStyle=elbowEdgeStyle;entryDx=0;entryDy=0;exitX=0.5;exitY=1;exitDx=0;exitDy=0;exitPerimeter=0;" parent="1" source="_XUYrqoo8mhQpUJpbrl_-90" target="_XUYrqoo8mhQpUJpbrl_-106" edge="1">
          <mxGeometry relative="1" as="geometry">
            <mxPoint x="7024" y="450" as="sourcePoint" />
            <mxPoint x="6770" y="586" as="targetPoint" />
          </mxGeometry>
        </mxCell>
        <mxCell id="_XUYrqoo8mhQpUJpbrl_-117" value="" style="group" parent="1" vertex="1" connectable="0">
          <mxGeometry x="7368" y="558" width="280" height="130" as="geometry" />
        </mxCell>
        <mxCell id="_XUYrqoo8mhQpUJpbrl_-118" value="" style="shape=folder;fontStyle=1;spacingTop=10;tabWidth=123;tabHeight=24;tabPosition=left;html=1;rounded=0;shadow=0;comic=0;labelBackgroundColor=none;strokeWidth=1;fontFamily=Verdana;fontSize=10;align=center;" parent="_XUYrqoo8mhQpUJpbrl_-117" vertex="1">
          <mxGeometry width="280" height="130" as="geometry" />
        </mxCell>
        <mxCell id="_XUYrqoo8mhQpUJpbrl_-119" value="" style="triangle;whiteSpace=wrap;html=1;rounded=0;shadow=0;comic=0;labelBackgroundColor=none;strokeWidth=1;fontFamily=Verdana;fontSize=10;align=center;rotation=-90;" parent="_XUYrqoo8mhQpUJpbrl_-117" vertex="1">
          <mxGeometry x="96" y="2" width="15" height="20" as="geometry" />
        </mxCell>
        <mxCell id="_XUYrqoo8mhQpUJpbrl_-120" value="ID Destino&lt;br&gt;Calle&lt;br&gt;Num&lt;br&gt;Esq&lt;br&gt;Bajalogica" style="shape=folder;fontStyle=1;spacingTop=10;tabWidth=50;tabHeight=17;tabPosition=left;html=1;rounded=0;shadow=0;comic=0;labelBackgroundColor=none;strokeWidth=1;fontFamily=Verdana;fontSize=10;align=center;" parent="_XUYrqoo8mhQpUJpbrl_-117" vertex="1">
          <mxGeometry x="68.5" y="30" width="122" height="90" as="geometry" />
        </mxCell>
        <mxCell id="_XUYrqoo8mhQpUJpbrl_-121" value="Modelo de Destino" style="text;html=1;strokeColor=none;fillColor=none;align=center;verticalAlign=middle;whiteSpace=wrap;rounded=0;" parent="_XUYrqoo8mhQpUJpbrl_-117" vertex="1">
          <mxGeometry y="-8" width="109" height="40" as="geometry" />
        </mxCell>
        <mxCell id="_XUYrqoo8mhQpUJpbrl_-122" value="" style="group" parent="1" vertex="1" connectable="0">
          <mxGeometry x="7359" y="978" width="280" height="130" as="geometry" />
        </mxCell>
        <mxCell id="_XUYrqoo8mhQpUJpbrl_-123" value="" style="shape=folder;fontStyle=1;spacingTop=10;tabWidth=123;tabHeight=24;tabPosition=left;html=1;rounded=0;shadow=0;comic=0;labelBackgroundColor=none;strokeWidth=1;fontFamily=Verdana;fontSize=10;align=center;" parent="_XUYrqoo8mhQpUJpbrl_-122" vertex="1">
          <mxGeometry width="280" height="130" as="geometry" />
        </mxCell>
        <mxCell id="_XUYrqoo8mhQpUJpbrl_-124" value="" style="triangle;whiteSpace=wrap;html=1;rounded=0;shadow=0;comic=0;labelBackgroundColor=none;strokeWidth=1;fontFamily=Verdana;fontSize=10;align=center;rotation=-90;" parent="_XUYrqoo8mhQpUJpbrl_-122" vertex="1">
          <mxGeometry x="96" y="2" width="15" height="20" as="geometry" />
        </mxCell>
        <mxCell id="_XUYrqoo8mhQpUJpbrl_-125" value="" style="shape=folder;fontStyle=1;spacingTop=10;tabWidth=50;tabHeight=17;tabPosition=left;html=1;rounded=0;shadow=0;comic=0;labelBackgroundColor=none;strokeWidth=1;fontFamily=Verdana;fontSize=10;align=center;" parent="_XUYrqoo8mhQpUJpbrl_-122" vertex="1">
          <mxGeometry x="84" y="40" width="136" height="80" as="geometry" />
        </mxCell>
        <mxCell id="_XUYrqoo8mhQpUJpbrl_-126" value="Controlador de Destino" style="text;html=1;strokeColor=none;fillColor=none;align=center;verticalAlign=middle;whiteSpace=wrap;rounded=0;" parent="_XUYrqoo8mhQpUJpbrl_-122" vertex="1">
          <mxGeometry x="-4" y="-6.5" width="100" height="37" as="geometry" />
        </mxCell>
        <mxCell id="_XUYrqoo8mhQpUJpbrl_-127" value="&lt;span style=&quot;color: rgb(240, 240, 240); font-family: Verdana; font-size: 10px; font-style: normal; font-variant-ligatures: normal; font-variant-caps: normal; font-weight: 700; letter-spacing: normal; orphans: 2; text-align: center; text-indent: 0px; text-transform: none; widows: 2; word-spacing: 0px; -webkit-text-stroke-width: 0px; background-color: rgb(42, 37, 47); text-decoration-thickness: initial; text-decoration-style: initial; text-decoration-color: initial; float: none; display: inline !important;&quot;&gt;Validacion de datos y &lt;br&gt;establecimientos de rutas o urls&lt;/span&gt;" style="text;whiteSpace=wrap;html=1;" parent="_XUYrqoo8mhQpUJpbrl_-122" vertex="1">
          <mxGeometry x="90" y="65" width="124" height="52.5" as="geometry" />
        </mxCell>
        <mxCell id="_XUYrqoo8mhQpUJpbrl_-128" style="rounded=0;html=1;dashed=1;labelBackgroundColor=none;startFill=0;endArrow=open;endFill=0;endSize=10;fontFamily=Verdana;fontSize=10;entryX=0.5;entryY=0;edgeStyle=elbowEdgeStyle;entryDx=0;entryDy=0;exitX=0.685;exitY=1.006;exitDx=0;exitDy=0;exitPerimeter=0;" parent="1" source="_XUYrqoo8mhQpUJpbrl_-90" target="_XUYrqoo8mhQpUJpbrl_-121" edge="1">
          <mxGeometry relative="1" as="geometry">
            <mxPoint x="7189" y="340" as="sourcePoint" />
            <mxPoint x="7138" y="592" as="targetPoint" />
            <Array as="points">
              <mxPoint x="7384" y="480" />
            </Array>
          </mxGeometry>
        </mxCell>
        <mxCell id="_XUYrqoo8mhQpUJpbrl_-140" value="&lt;font style=&quot;font-size: 29px;&quot;&gt;Peticiones HTTP&lt;/font&gt;" style="rounded=1;whiteSpace=wrap;html=1;" parent="1" vertex="1">
          <mxGeometry x="6585" y="1400" width="1385" height="60" as="geometry" />
        </mxCell>
        <mxCell id="_XUYrqoo8mhQpUJpbrl_-142" style="rounded=0;html=1;dashed=1;labelBackgroundColor=none;startFill=0;endArrow=open;endFill=0;endSize=10;fontFamily=Verdana;fontSize=10;entryX=0.375;entryY=-0.023;edgeStyle=elbowEdgeStyle;entryDx=0;entryDy=0;exitX=0.5;exitY=1;exitDx=0;exitDy=0;exitPerimeter=0;entryPerimeter=0;" parent="1" source="_XUYrqoo8mhQpUJpbrl_-106" target="_XUYrqoo8mhQpUJpbrl_-111" edge="1">
          <mxGeometry relative="1" as="geometry">
            <mxPoint x="7254" y="327" as="sourcePoint" />
            <mxPoint x="7433" y="560" as="targetPoint" />
            <Array as="points">
              <mxPoint x="7108" y="810" />
            </Array>
          </mxGeometry>
        </mxCell>
        <mxCell id="_XUYrqoo8mhQpUJpbrl_-143" style="rounded=0;html=1;dashed=1;labelBackgroundColor=none;startFill=0;endArrow=open;endFill=0;endSize=10;fontFamily=Verdana;fontSize=10;edgeStyle=elbowEdgeStyle;exitX=0.5;exitY=1;exitDx=0;exitDy=0;exitPerimeter=0;" parent="1" source="_XUYrqoo8mhQpUJpbrl_-118" edge="1">
          <mxGeometry relative="1" as="geometry">
            <mxPoint x="7534" y="770.5" as="sourcePoint" />
            <mxPoint x="7450" y="980" as="targetPoint" />
            <Array as="points">
              <mxPoint x="7440" y="840" />
            </Array>
          </mxGeometry>
        </mxCell>
        <mxCell id="_XUYrqoo8mhQpUJpbrl_-145" value="" style="group" parent="1" vertex="1" connectable="0">
          <mxGeometry x="6658" y="1730" width="1260" height="210" as="geometry" />
        </mxCell>
        <mxCell id="_XUYrqoo8mhQpUJpbrl_-146" value="" style="shape=folder;fontStyle=1;spacingTop=10;tabWidth=123;tabHeight=24;tabPosition=left;html=1;rounded=0;shadow=0;comic=0;labelBackgroundColor=none;strokeWidth=1;fontFamily=Verdana;fontSize=10;align=center;" parent="_XUYrqoo8mhQpUJpbrl_-145" vertex="1">
          <mxGeometry width="1260" height="210" as="geometry" />
        </mxCell>
        <mxCell id="_XUYrqoo8mhQpUJpbrl_-147" value="" style="shape=folder;fontStyle=1;spacingTop=10;tabWidth=50;tabHeight=17;tabPosition=left;html=1;rounded=0;shadow=0;comic=0;labelBackgroundColor=none;strokeWidth=1;fontFamily=Verdana;fontSize=10;align=center;" parent="_XUYrqoo8mhQpUJpbrl_-145" vertex="1">
          <mxGeometry x="378" y="46.15" width="612" height="133.85" as="geometry" />
        </mxCell>
        <mxCell id="_XUYrqoo8mhQpUJpbrl_-148" value="Interfaz camionero" style="text;html=1;strokeColor=none;fillColor=none;align=center;verticalAlign=middle;whiteSpace=wrap;rounded=0;" parent="_XUYrqoo8mhQpUJpbrl_-145" vertex="1">
          <mxGeometry x="-30" y="-7.5" width="180" height="42.69" as="geometry" />
        </mxCell>
        <mxCell id="_XUYrqoo8mhQpUJpbrl_-149" value="&lt;div style=&quot;font-size: 15px;&quot;&gt;&lt;font face=&quot;Verdana&quot;&gt;&lt;span style=&quot;background-color: rgb(42, 37, 47);&quot;&gt;&lt;b&gt;Ventana:&lt;br&gt;Visualizar lotes en transito, su destino, tipo de&lt;br&gt;trayecto y que camion transporta cada lote&lt;/b&gt;&lt;/span&gt;&lt;/font&gt;&lt;/div&gt;" style="text;whiteSpace=wrap;html=1;align=left;" parent="_XUYrqoo8mhQpUJpbrl_-145" vertex="1">
          <mxGeometry x="405" y="75" width="415" height="95" as="geometry" />
        </mxCell>
        <mxCell id="_XUYrqoo8mhQpUJpbrl_-150" value="&lt;font style=&quot;font-size: 7px;&quot;&gt;Ventanas-Gui&lt;/font&gt;" style="text;html=1;strokeColor=none;fillColor=none;align=center;verticalAlign=middle;whiteSpace=wrap;rounded=0;" parent="_XUYrqoo8mhQpUJpbrl_-145" vertex="1">
          <mxGeometry x="350" y="46.15" width="100" height="20" as="geometry" />
        </mxCell>
        <mxCell id="_XUYrqoo8mhQpUJpbrl_-151" value="&lt;font style=&quot;font-size: 50px;&quot;&gt;Logica del negocio&lt;/font&gt;" style="text;html=1;strokeColor=none;fillColor=none;align=center;verticalAlign=middle;whiteSpace=wrap;rounded=0;" parent="1" vertex="1">
          <mxGeometry x="6190" y="580" width="480" height="30" as="geometry" />
        </mxCell>
        <mxCell id="_XUYrqoo8mhQpUJpbrl_-152" value="&lt;span style=&quot;font-size: 50px;&quot;&gt;Interprete de datos recibidos&lt;/span&gt;" style="text;html=1;strokeColor=none;fillColor=none;align=center;verticalAlign=middle;whiteSpace=wrap;rounded=0;" parent="1" vertex="1">
          <mxGeometry x="6180" y="968" width="480" height="140" as="geometry" />
        </mxCell>
        <mxCell id="_XUYrqoo8mhQpUJpbrl_-153" value="" style="shape=flexArrow;endArrow=classic;html=1;rounded=0;width=20;endSize=12.142857142857142;endWidth=96.19047619047619;" parent="1" edge="1">
          <mxGeometry width="50" height="50" relative="1" as="geometry">
            <mxPoint x="6640" y="1010" as="sourcePoint" />
            <mxPoint x="6800" y="1010" as="targetPoint" />
          </mxGeometry>
        </mxCell>
        <mxCell id="_XUYrqoo8mhQpUJpbrl_-154" value="" style="shape=flexArrow;endArrow=classic;html=1;rounded=0;width=20;endSize=12.142857142857142;endWidth=96.19047619047619;" parent="1" edge="1">
          <mxGeometry width="50" height="50" relative="1" as="geometry">
            <mxPoint x="6665" y="600" as="sourcePoint" />
            <mxPoint x="6825" y="600" as="targetPoint" />
          </mxGeometry>
        </mxCell>
        <mxCell id="_XUYrqoo8mhQpUJpbrl_-155" value="" style="endArrow=classic;html=1;rounded=0;entryX=0.5;entryY=1;entryDx=0;entryDy=0;exitX=0.494;exitY=0.116;exitDx=0;exitDy=0;exitPerimeter=0;" parent="1" source="_XUYrqoo8mhQpUJpbrl_-146" target="_XUYrqoo8mhQpUJpbrl_-140" edge="1">
          <mxGeometry width="50" height="50" relative="1" as="geometry">
            <mxPoint x="7288" y="1869.9999999999995" as="sourcePoint" />
            <mxPoint x="7288" y="1530" as="targetPoint" />
          </mxGeometry>
        </mxCell>
        <mxCell id="_XUYrqoo8mhQpUJpbrl_-157" value="" style="endArrow=classic;html=1;rounded=0;entryX=0.5;entryY=1;entryDx=0;entryDy=0;entryPerimeter=0;exitX=0.373;exitY=0.033;exitDx=0;exitDy=0;exitPerimeter=0;" parent="1" source="_XUYrqoo8mhQpUJpbrl_-140" target="_XUYrqoo8mhQpUJpbrl_-111" edge="1">
          <mxGeometry width="50" height="50" relative="1" as="geometry">
            <mxPoint x="7120" y="1390" as="sourcePoint" />
            <mxPoint x="6800" y="1110" as="targetPoint" />
          </mxGeometry>
        </mxCell>
        <mxCell id="_XUYrqoo8mhQpUJpbrl_-158" value="" style="endArrow=classic;html=1;rounded=0;exitX=0.662;exitY=-0.033;exitDx=0;exitDy=0;exitPerimeter=0;" parent="1" source="_XUYrqoo8mhQpUJpbrl_-140" edge="1">
          <mxGeometry width="50" height="50" relative="1" as="geometry">
            <mxPoint x="7130" y="1400" as="sourcePoint" />
            <mxPoint x="7503" y="1110" as="targetPoint" />
          </mxGeometry>
        </mxCell>
        <mxCell id="_XUYrqoo8mhQpUJpbrl_-160" value="&lt;span style=&quot;font-size: 50px;&quot;&gt;Capa visual&lt;/span&gt;" style="text;html=1;strokeColor=none;fillColor=none;align=center;verticalAlign=middle;whiteSpace=wrap;rounded=0;" parent="1" vertex="1">
          <mxGeometry x="5960" y="1780" width="480" height="140" as="geometry" />
        </mxCell>
        <mxCell id="_XUYrqoo8mhQpUJpbrl_-161" value="" style="shape=flexArrow;endArrow=classic;html=1;rounded=0;width=20;endSize=12.142857142857142;endWidth=96.19047619047619;" parent="1" edge="1">
          <mxGeometry width="50" height="50" relative="1" as="geometry">
            <mxPoint x="6420" y="1822" as="sourcePoint" />
            <mxPoint x="6580" y="1822" as="targetPoint" />
          </mxGeometry>
        </mxCell>
        <mxCell id="_XUYrqoo8mhQpUJpbrl_-175" style="rounded=0;html=1;dashed=1;labelBackgroundColor=none;startFill=0;endArrow=open;endFill=0;endSize=10;fontFamily=Verdana;fontSize=10;entryX=0.982;entryY=0.131;edgeStyle=elbowEdgeStyle;entryDx=0;entryDy=0;exitX=1;exitY=1;exitDx=0;exitDy=0;entryPerimeter=0;" parent="1" source="_XUYrqoo8mhQpUJpbrl_-140" target="_XUYrqoo8mhQpUJpbrl_-146" edge="1">
          <mxGeometry relative="1" as="geometry">
            <mxPoint x="8020" y="1478" as="sourcePoint" />
            <mxPoint x="7770" y="1780" as="targetPoint" />
            <Array as="points">
              <mxPoint x="7900" y="1610" />
            </Array>
          </mxGeometry>
        </mxCell>
        <mxCell id="_XUYrqoo8mhQpUJpbrl_-177" value="" style="endArrow=classic;html=1;rounded=0;entryX=0.468;entryY=1.008;entryDx=0;entryDy=0;entryPerimeter=0;exitX=1;exitY=0.5;exitDx=0;exitDy=0;" parent="1" source="Lk0_g97--WdqBCXoRrSc-93" target="_XUYrqoo8mhQpUJpbrl_-146" edge="1">
          <mxGeometry width="50" height="50" relative="1" as="geometry">
            <mxPoint x="5580" y="3360" as="sourcePoint" />
            <mxPoint x="7249" y="2000" as="targetPoint" />
            <Array as="points">
              <mxPoint x="7248" y="3440" />
              <mxPoint x="7243" y="2504" />
            </Array>
          </mxGeometry>
        </mxCell>
      </root>
    </mxGraphModel>
  </diagram>
</mxfile>
